<svg width="50" height="50" viewBox="0 0 50 50" fill="none" xmlns="http://www.w3.org/2000/svg">
<path d="M13.2031 11.4648L10.6543 18.75H39.3457L36.7969 11.4648C36.3574 10.2148 35.1758 9.375 33.8477 9.375H16.1523C14.8242 9.375 13.6426 10.2148 13.2031 11.4648ZM3.86719 19.2188L7.30469 9.4043C8.62305 5.64453 12.168 3.125 16.1523 3.125H33.8477C37.832 3.125 41.377 5.64453 42.6953 9.4043L46.1328 19.2188C48.3984 20.1563 50 22.3926 50 25V39.0625V43.75C50 45.4785 48.6035 46.875 46.875 46.875H43.75C42.0215 46.875 40.625 45.4785 40.625 43.75V39.0625H9.375V43.75C9.375 45.4785 7.97852 46.875 6.25 46.875H3.125C1.39648 46.875 0 45.4785 0 43.75V39.0625V25C0 22.3926 1.60156 20.1563 3.86719 19.2188ZM12.5 28.125C12.5 27.2962 12.1708 26.5013 11.5847 25.9153C10.9987 25.3292 10.2038 25 9.375 25C8.5462 25 7.75134 25.3292 7.16529 25.9153C6.57924 26.5013 6.25 27.2962 6.25 28.125C6.25 28.9538 6.57924 29.7487 7.16529 30.3347C7.75134 30.9208 8.5462 31.25 9.375 31.25C10.2038 31.25 10.9987 30.9208 11.5847 30.3347C12.1708 29.7487 12.5 28.9538 12.5 28.125ZM40.625 31.25C41.4538 31.25 42.2487 30.9208 42.8347 30.3347C43.4208 29.7487 43.75 28.9538 43.75 28.125C43.75 27.2962 43.4208 26.5013 42.8347 25.9153C42.2487 25.3292 41.4538 25 40.625 25C39.7962 25 39.0013 25.3292 38.4153 25.9153C37.8292 26.5013 37.5 27.2962 37.5 28.125C37.5 28.9538 37.8292 29.7487 38.4153 30.3347C39.0013 30.9208 39.7962 31.25 40.625 31.25Z" fill="#44633F"/>
</svg>
