<svg width="113" height="90" viewBox="0 0 113 90" fill="none" xmlns="http://www.w3.org/2000/svg">
<path d="M12.7125 15.4688C12.7125 12.858 13.7542 10.3542 15.6085 8.50817C17.4627 6.66211 19.9777 5.625 22.6 5.625C25.2223 5.625 27.7373 6.66211 29.5915 8.50817C31.4458 10.3542 32.4875 12.858 32.4875 15.4688C32.4875 18.0795 31.4458 20.5833 29.5915 22.4293C27.7373 24.2754 25.2223 25.3125 22.6 25.3125C19.9777 25.3125 17.4627 24.2754 15.6085 22.4293C13.7542 20.5833 12.7125 18.0795 12.7125 15.4688ZM11.3 43.1895C9.53438 45.1582 8.475 47.7773 8.475 50.625C8.475 53.4727 9.53438 56.0918 11.3 58.0605V43.1895ZM36.7956 34.5234C31.5517 39.1465 28.25 45.9141 28.25 53.4375C28.25 59.4668 30.3688 65.0039 33.9 69.3457V73.125C33.9 76.2363 31.3752 78.75 28.25 78.75H16.95C13.8248 78.75 11.3 76.2363 11.3 73.125V68.4141C4.62594 65.25 0 58.4824 0 50.625C0 39.7441 8.84578 30.9375 19.775 30.9375H25.425C29.6625 30.9375 33.5822 32.2559 36.7956 34.5059V34.5234ZM79.1 73.125V69.3457C82.6313 65.0039 84.75 59.4668 84.75 53.4375C84.75 45.9141 81.4483 39.1465 76.2044 34.5059C79.4178 32.2559 83.3375 30.9375 87.575 30.9375H93.225C104.154 30.9375 113 39.7441 113 50.625C113 58.4824 108.374 65.25 101.7 68.4141V73.125C101.7 76.2363 99.1752 78.75 96.05 78.75H84.75C81.6248 78.75 79.1 76.2363 79.1 73.125ZM80.5125 15.4688C80.5125 12.858 81.5542 10.3542 83.4085 8.50817C85.2627 6.66211 87.7777 5.625 90.4 5.625C93.0223 5.625 95.5373 6.66211 97.3915 8.50817C99.2458 10.3542 100.288 12.858 100.288 15.4688C100.288 18.0795 99.2458 20.5833 97.3915 22.4293C95.5373 24.2754 93.0223 25.3125 90.4 25.3125C87.7777 25.3125 85.2627 24.2754 83.4085 22.4293C81.5542 20.5833 80.5125 18.0795 80.5125 15.4688ZM101.7 43.1895V58.0781C103.466 56.0918 104.525 53.4902 104.525 50.6426C104.525 47.7949 103.466 45.1758 101.7 43.207V43.1895ZM56.5 5.625C59.4969 5.625 62.3711 6.81026 64.4903 8.92005C66.6095 11.0298 67.8 13.8913 67.8 16.875C67.8 19.8587 66.6095 22.7202 64.4903 24.83C62.3711 26.9397 59.4969 28.125 56.5 28.125C53.5031 28.125 50.6289 26.9397 48.5097 24.83C46.3905 22.7202 45.2 19.8587 45.2 16.875C45.2 13.8913 46.3905 11.0298 48.5097 8.92005C50.6289 6.81026 53.5031 5.625 56.5 5.625ZM42.375 53.4375C42.375 56.2852 43.4344 58.8867 45.2 60.873V46.002C43.4344 47.9883 42.375 50.5898 42.375 53.4375ZM67.8 46.002V60.8906C69.5656 58.9043 70.625 56.3027 70.625 53.4551C70.625 50.6074 69.5656 47.9883 67.8 46.0195V46.002ZM79.1 53.4375C79.1 61.2949 74.4741 68.0625 67.8 71.2266V78.75C67.8 81.8613 65.2752 84.375 62.15 84.375H50.85C47.7248 84.375 45.2 81.8613 45.2 78.75V71.2266C38.5259 68.0625 33.9 61.2949 33.9 53.4375C33.9 42.5566 42.7458 33.75 53.675 33.75H59.325C70.2542 33.75 79.1 42.5566 79.1 53.4375Z" fill="#1C4E80"/>
</svg>
