<svg width="78" height="90" viewBox="0 0 78 90" fill="none" xmlns="http://www.w3.org/2000/svg">
<path d="M27.7353 0.94902C29.0933 -0.334183 31.2 -0.316605 32.558 0.966598C37.3634 5.51933 41.8728 10.4236 46.0862 15.7322C48.0013 13.201 50.1777 10.4412 52.5281 8.19121C53.9036 6.89043 56.0277 6.89043 57.4031 8.20879C63.4272 14.0096 68.5286 21.6736 72.1152 28.951C75.6496 36.1228 78 43.4529 78 48.6209C78 71.0506 60.6241 89.9998 39 89.9998C17.1321 89.9998 0 71.033 0 48.6033C0 41.8533 3.09911 33.6092 7.90446 25.4529C12.7621 17.1736 19.6219 8.54277 27.7353 0.94902ZM39.296 73.1248C43.7009 73.1248 47.6009 71.8943 51.2746 69.4334C58.6045 64.2654 60.5719 53.9295 56.167 45.8084C55.3835 44.2264 53.3813 44.1209 52.2496 45.4568L47.8621 50.6072C46.7129 51.9432 44.6411 51.908 43.5616 50.5193C40.6888 46.8279 35.5527 40.2361 32.6277 36.492C31.5308 35.0857 29.4415 35.0682 28.3272 36.4744C22.4424 43.9451 19.4826 48.6561 19.4826 53.9471C19.5 65.9881 28.3098 73.1248 39.296 73.1248Z" fill="#44633F"/>
</svg>
