<svg width="50" height="50" viewBox="0 0 50 50" fill="none" xmlns="http://www.w3.org/2000/svg">
<path d="M17.9688 4.6875H32.0312C32.4609 4.6875 32.8125 5.03906 32.8125 5.46875V9.375H17.1875V5.46875C17.1875 5.03906 17.5391 4.6875 17.9688 4.6875ZM12.5 5.46875V9.375H6.25C2.80273 9.375 0 12.1777 0 15.625V40.625C0 44.0723 2.80273 46.875 6.25 46.875H43.75C47.1973 46.875 50 44.0723 50 40.625V15.625C50 12.1777 47.1973 9.375 43.75 9.375H37.5V5.46875C37.5 2.45117 35.0488 0 32.0312 0H17.9688C14.9512 0 12.5 2.45117 12.5 5.46875ZM21.875 20.3125C21.875 19.4531 22.5781 18.75 23.4375 18.75H26.5625C27.4219 18.75 28.125 19.4531 28.125 20.3125V25H32.8125C33.6719 25 34.375 25.7031 34.375 26.5625V29.6875C34.375 30.5469 33.6719 31.25 32.8125 31.25H28.125V35.9375C28.125 36.7969 27.4219 37.5 26.5625 37.5H23.4375C22.5781 37.5 21.875 36.7969 21.875 35.9375V31.25H17.1875C16.3281 31.25 15.625 30.5469 15.625 29.6875V26.5625C15.625 25.7031 16.3281 25 17.1875 25H21.875V20.3125Z" fill="#44633F"/>
</svg>
