<svg width="82" height="82" viewBox="0 0 82 82" fill="none" xmlns="http://www.w3.org/2000/svg">
<g clip-path="url(#clip0_561_1693)">
<path d="M74.3125 41C74.3125 32.165 70.8028 23.6918 64.5555 17.4445C58.3082 11.1972 49.835 7.6875 41 7.6875C32.165 7.6875 23.6918 11.1972 17.4445 17.4445C11.1972 23.6918 7.6875 32.165 7.6875 41C7.6875 49.835 11.1972 58.3082 17.4445 64.5555C23.6918 70.8028 32.165 74.3125 41 74.3125C49.835 74.3125 58.3082 70.8028 64.5555 64.5555C70.8028 58.3082 74.3125 49.835 74.3125 41ZM0 41C0 30.1261 4.31963 19.6976 12.0086 12.0086C19.6976 4.31963 30.1261 0 41 0C51.8739 0 62.3024 4.31963 69.9914 12.0086C77.6804 19.6976 82 30.1261 82 41C82 51.8739 77.6804 62.3024 69.9914 69.9914C62.3024 77.6804 51.8739 82 41 82C30.1261 82 19.6976 77.6804 12.0086 69.9914C4.31963 62.3024 0 51.8739 0 41ZM28.4438 50.9457C30.8781 53.5723 35.0422 56.375 41 56.375C46.9578 56.375 51.1219 53.5723 53.5562 50.9457C54.9977 49.3922 57.432 49.2801 58.9855 50.7215C60.5391 52.1629 60.6512 54.5973 59.2098 56.1508C55.6863 59.9625 49.6004 64.0625 41.016 64.0625C32.4316 64.0625 26.3297 59.9785 22.8223 56.1508C21.3809 54.5973 21.477 52.1629 23.0465 50.7215C24.616 49.2801 27.0344 49.3762 28.4758 50.9457H28.4438ZM34.85 36.6438L34.818 36.6117C34.7859 36.5797 34.7539 36.5316 34.7059 36.4676C34.6098 36.3395 34.4496 36.1473 34.2574 35.923C33.857 35.4746 33.2965 34.866 32.6238 34.2734C31.2145 33.0242 29.6129 32.0312 28.1875 32.0312C26.7621 32.0312 25.1605 33.0242 23.7512 34.2734C23.0785 34.866 22.518 35.4746 22.1176 35.923C21.9254 36.1473 21.7652 36.3395 21.6691 36.4676C21.6211 36.5316 21.573 36.5797 21.557 36.6117L21.525 36.6438C21.1887 37.0922 20.6121 37.2684 20.0996 37.0922C19.5871 36.916 19.2188 36.4355 19.2188 35.875C19.2188 33.0082 20.2918 30.1734 21.8773 28.0594C23.4469 25.9773 25.7051 24.3438 28.1875 24.3438C30.6699 24.3438 32.9281 25.9773 34.4977 28.0594C36.0832 30.1734 37.1562 33.0082 37.1562 35.875C37.1562 36.4195 36.8039 36.916 36.2754 37.0922C35.7469 37.2684 35.1703 37.0922 34.85 36.6438ZM60.475 36.6438L60.443 36.6117C60.4109 36.5797 60.3789 36.5316 60.3309 36.4676C60.2348 36.3395 60.0746 36.1473 59.8824 35.923C59.482 35.4746 58.9215 34.866 58.2488 34.2734C56.8395 33.0242 55.2379 32.0312 53.8125 32.0312C52.3871 32.0312 50.7855 33.0242 49.3762 34.2734C48.7035 34.866 48.143 35.4746 47.7426 35.923C47.5504 36.1473 47.3902 36.3395 47.2941 36.4676C47.2461 36.5316 47.198 36.5797 47.182 36.6117L47.15 36.6438C46.8137 37.0922 46.2371 37.2684 45.7246 37.0922C45.2121 36.916 44.8438 36.4355 44.8438 35.875C44.8438 33.0082 45.9168 30.1734 47.5023 28.0594C49.0719 25.9773 51.3301 24.3438 53.8125 24.3438C56.2949 24.3438 58.5531 25.9773 60.1227 28.0594C61.7082 30.1734 62.7812 33.0082 62.7812 35.875C62.7812 36.4195 62.4289 36.916 61.9004 37.0922C61.3719 37.2684 60.7953 37.0922 60.475 36.6438Z" fill="#44633F"/>
</g>
<defs>
<clipPath id="clip0_561_1693">
<rect width="82" height="82" fill="white"/>
</clipPath>
</defs>
</svg>
