<svg width="68" height="90" viewBox="0 0 68 90" fill="none" xmlns="http://www.w3.org/2000/svg">
<g clip-path="url(#clip0_606_1701)">
<path d="M34.0009 8.4375C34.0009 6.19974 34.8964 4.05362 36.4905 2.47129C38.0845 0.888948 40.2466 0 42.5009 0C44.7552 0 46.9172 0.888948 48.5113 2.47129C50.1054 4.05362 51.0009 6.19974 51.0009 8.4375C51.0009 10.6753 50.1054 12.8214 48.5113 14.4037C46.9172 15.9861 44.7552 16.875 42.5009 16.875C40.2466 16.875 38.0845 15.9861 36.4905 14.4037C34.8964 12.8214 34.0009 10.6753 34.0009 8.4375ZM43.0853 40.5527L39.703 53.9648L48.504 62.7012C50.0978 64.2832 51.0009 66.4277 51.0009 68.6602V84.375C51.0009 87.4863 48.4686 90 45.3342 90C42.1999 90 39.6676 87.4863 39.6676 84.375V69.8379L26.5811 56.8477C23.7832 54.0703 22.6499 50.0625 23.5884 46.248L27.2009 31.4824C28.6707 25.4883 34.7624 21.832 40.7832 23.3262C44.1478 24.1699 47.0874 26.209 48.9999 29.0742L54.029 36.5625H59.5009V32.3438C59.5009 30.0059 61.3957 28.125 63.7509 28.125C66.1061 28.125 68.0009 30.0059 68.0009 32.3438V42.1523C68.0009 42.1699 68.0009 42.1875 68.0009 42.1875V42.2227V85.7812C68.0009 88.1191 66.1061 90 63.7509 90C61.3957 90 59.5009 88.1191 59.5009 85.7812V47.8125H52.5238C49.6905 47.8125 47.0342 46.4063 45.4582 44.0508L43.103 40.5352L43.0853 40.5527ZM14.3623 82.9512L20.7728 58.7109C21.304 59.4492 21.9061 60.1523 22.5613 60.8027L29.9811 68.168L25.3061 85.7988C24.5092 88.8047 21.4103 90.5977 18.3821 89.8066C15.354 89.0156 13.5478 85.9395 14.3446 82.9336L14.3623 82.9512ZM24.1905 22.1309L17.9571 46.8457C17.4259 48.9727 15.3186 50.3437 13.1405 49.9922L4.65818 48.5859C2.17902 48.1816 0.602975 45.7207 1.25818 43.3125L5.64985 27.2461C7.33214 21.1289 12.928 16.875 19.3207 16.875H20.0644C22.8269 16.875 24.8634 19.459 24.1905 22.1133V22.1309Z" fill="#1C4E80"/>
</g>
<defs>
<clipPath id="clip0_606_1701">
<rect width="68" height="90" fill="white"/>
</clipPath>
</defs>
</svg>
