<svg width="82" height="82" viewBox="0 0 82 82" fill="none" xmlns="http://www.w3.org/2000/svg">
<g clip-path="url(#clip0_559_1687)">
<path d="M74.3125 41C74.3125 49.835 70.8028 58.3082 64.5555 64.5555C58.3082 70.8028 49.835 74.3125 41 74.3125C32.165 74.3125 23.6918 70.8028 17.4445 64.5555C11.1972 58.3082 7.6875 49.835 7.6875 41C7.6875 32.165 11.1972 23.6918 17.4445 17.4445C23.6918 11.1972 32.165 7.6875 41 7.6875C49.835 7.6875 58.3082 11.1972 64.5555 17.4445C70.8028 23.6918 74.3125 32.165 74.3125 41ZM41 0C30.1261 0 19.6976 4.31963 12.0086 12.0086C4.31963 19.6976 0 30.1261 0 41C0 51.8739 4.31963 62.3024 12.0086 69.9914C19.6976 77.6804 30.1261 82 41 82C51.8739 82 62.3024 77.6804 69.9914 69.9914C77.6804 62.3024 82 51.8739 82 41C82 30.1261 77.6804 19.6976 69.9914 12.0086C62.3024 4.31963 51.8739 0 41 0ZM28.2516 38.4375C29.6108 38.4375 30.9144 37.8975 31.8755 36.9364C32.8366 35.9753 33.3766 34.6717 33.3766 33.3125C33.3766 31.9533 32.8366 30.6497 31.8755 29.6886C30.9144 28.7275 29.6108 28.1875 28.2516 28.1875C26.8923 28.1875 25.5888 28.7275 24.6276 29.6886C23.6665 30.6497 23.1266 31.9533 23.1266 33.3125C23.1266 34.6717 23.6665 35.9753 24.6276 36.9364C25.5888 37.8975 26.8923 38.4375 28.2516 38.4375ZM59.0016 33.3125C59.0016 31.9533 58.4616 30.6497 57.5005 29.6886C56.5394 28.7275 55.2358 28.1875 53.8766 28.1875C52.5173 28.1875 51.2138 28.7275 50.2526 29.6886C49.2915 30.6497 48.7516 31.9533 48.7516 33.3125C48.7516 34.6717 49.2915 35.9753 50.2526 36.9364C51.2138 37.8975 52.5173 38.4375 53.8766 38.4375C55.2358 38.4375 56.5394 37.8975 57.5005 36.9364C58.4616 35.9753 59.0016 34.6717 59.0016 33.3125ZM29.4688 52.5312C27.3387 52.5312 25.625 54.2449 25.625 56.375C25.625 58.5051 27.3387 60.2188 29.4688 60.2188H52.5312C54.6613 60.2188 56.375 58.5051 56.375 56.375C56.375 54.2449 54.6613 52.5312 52.5312 52.5312H29.4688Z" fill="#44633F"/>
</g>
<defs>
<clipPath id="clip0_559_1687">
<rect width="82" height="82" fill="white"/>
</clipPath>
</defs>
</svg>
