<svg width="59" height="53" viewBox="0 0 59 53" fill="none" xmlns="http://www.w3.org/2000/svg">
<path d="M19.6662 3.3125C19.6662 1.48027 21.131 0 22.944 0H36.0551C37.8681 0 39.3329 1.48027 39.3329 3.3125V6.625H44.2495C46.9639 6.625 49.1662 8.85059 49.1662 11.5938V24.8438L53.7141 26.3758C56.0803 27.1729 56.7358 30.2576 54.8921 31.9553L44.5466 41.5408C42.8872 42.5139 40.9922 43.1039 39.3329 43.1039C37.3252 43.1039 35.1537 42.3068 33.269 41.0025C31.0053 39.398 27.9836 39.398 25.7198 41.0025C23.9683 42.224 21.8275 43.1039 19.656 43.1039C17.9966 43.1039 16.1016 42.5139 14.4422 41.5408L4.09676 31.9553C2.25301 30.2473 2.90856 27.1729 5.27471 26.3758L9.83287 24.8438V11.5938C9.83287 8.85059 12.0351 6.625 14.7495 6.625H19.6662V3.3125ZM16.3884 22.6389L27.4304 18.9227C28.7723 18.4672 30.2268 18.4672 31.5789 18.9227L42.6106 22.6389V13.25H16.3884V22.6389ZM31.3945 43.6732C33.6992 45.2777 36.516 46.375 39.3329 46.375C42.0883 46.375 45.0075 45.257 47.261 43.6732C48.4799 42.7934 50.1393 42.8658 51.2763 43.8492C52.7513 45.0811 54.6053 46.023 56.4593 46.4578C58.2211 46.8719 59.3171 48.6523 58.9073 50.4328C58.4976 52.2133 56.7358 53.3209 54.974 52.9068C52.4645 52.3168 50.3749 51.1988 49.0126 50.3189C46.0421 51.9338 42.7131 53 39.3329 53C36.0653 53 33.1256 51.9752 31.0975 51.0436C30.5034 50.7641 29.9605 50.4949 29.4995 50.2465C29.0386 50.4949 28.506 50.7744 27.9016 51.0436C25.8735 51.9752 22.9337 53 19.6662 53C16.286 53 12.957 51.9338 9.98651 50.3293C8.61394 51.1988 6.5346 52.3271 4.02506 52.9172C2.26325 53.3313 0.501444 52.2236 0.091722 50.4432C-0.318 48.6627 0.778007 46.8822 2.53981 46.4682C4.39381 46.0334 6.2478 45.0914 7.7228 43.8596C8.85978 42.8865 10.5192 42.8141 11.7381 43.6836C14.0018 45.257 16.9108 46.375 19.6662 46.375C22.483 46.375 25.2999 45.2777 27.6046 43.6732C28.7416 42.8555 30.2575 42.8555 31.3945 43.6732Z" fill="#1C4E80"/>
</svg>
