<svg width="100" height="90" viewBox="0 0 100 90" fill="none" xmlns="http://www.w3.org/2000/svg">
<g clip-path="url(#clip0_606_1684)">
<path d="M33.3324 5.625C33.3324 2.51367 35.815 0 38.8879 0H61.1102C64.1831 0 66.6657 2.51367 66.6657 5.625V11.25H74.9991C79.5997 11.25 83.3324 15.0293 83.3324 19.6875V42.1875L91.0407 44.7891C95.0511 46.1426 96.1622 51.3809 93.0372 54.2637L75.5025 70.541C72.69 72.1934 69.4782 73.1953 66.6657 73.1953C63.2629 73.1953 59.5824 71.8418 56.3879 69.627C52.5511 66.9023 47.4296 66.9023 43.5928 69.627C40.624 71.7012 36.9956 73.1953 33.315 73.1953C30.5025 73.1953 27.2907 72.1934 24.4782 70.541L6.94349 54.2637C3.81849 51.3633 4.9296 46.1426 8.94002 44.7891L16.6657 42.1875V19.6875C16.6657 15.0293 20.3984 11.25 24.999 11.25H33.3324V5.625ZM27.7768 38.4434L46.4921 32.1328C48.7664 31.3594 51.2317 31.3594 53.5234 32.1328L72.2213 38.4434V22.5H27.7768V38.4434ZM53.2109 74.1621C57.1171 76.8867 61.8914 78.75 66.6657 78.75C71.3359 78.75 76.2838 76.8516 80.1032 74.1621C82.1692 72.668 84.9817 72.791 86.9088 74.4609C89.4088 76.5527 92.5511 78.1523 95.6935 78.8906C98.6796 79.5937 100.537 82.6172 99.8428 85.6406C99.1483 88.6641 96.1622 90.5449 93.1761 89.8418C88.9227 88.8398 85.381 86.9414 83.072 85.4473C78.0372 88.1895 72.3949 90 66.6657 90C61.1275 90 56.1449 88.2598 52.7074 86.6777C51.7004 86.2031 50.7803 85.7461 49.999 85.3242C49.2178 85.7461 48.315 86.2207 47.2907 86.6777C43.8532 88.2598 38.8706 90 33.3324 90C27.6032 90 21.9609 88.1895 16.9261 85.4648C14.5997 86.9414 11.0754 88.8574 6.82196 89.8594C3.83585 90.5625 0.84974 88.6816 0.155295 85.6582C-0.539149 82.6348 1.31849 79.6113 4.3046 78.9082C7.44696 78.1699 10.5893 76.5703 13.0893 74.4785C15.0164 72.8262 17.8289 72.7031 19.8949 74.1797C23.7317 76.8516 28.6622 78.75 33.3324 78.75C38.1067 78.75 42.881 76.8867 46.7872 74.1621C48.7143 72.7734 51.2838 72.7734 53.2109 74.1621Z" fill="#44633F"/>
</g>
<defs>
<clipPath id="clip0_606_1684">
<rect width="100" height="90" fill="white"/>
</clipPath>
</defs>
</svg>
