<svg width="62" height="50" viewBox="0 0 62 50" fill="none" xmlns="http://www.w3.org/2000/svg">
<g clip-path="url(#clip0_671_1752)">
<path d="M7.74986 4.6875C7.74986 3.4443 8.23977 2.25201 9.11182 1.37294C9.98386 0.49386 11.1666 0 12.3999 0C13.6331 0 14.8159 0.49386 15.6879 1.37294C16.56 2.25201 17.0499 3.4443 17.0499 4.6875C17.0499 5.9307 16.56 7.12299 15.6879 8.00206C14.8159 8.88114 13.6331 9.375 12.3999 9.375C11.1666 9.375 9.98386 8.88114 9.11182 8.00206C8.23977 7.12299 7.74986 5.9307 7.74986 4.6875ZM11.6249 34.375V46.875C11.6249 48.6035 10.2396 50 8.52486 50C6.81017 50 5.42486 48.6035 5.42486 46.875V31.7578C4.64017 32.6563 3.3808 33.0469 2.17955 32.6758C0.542362 32.1582 -0.368263 30.4102 0.145174 28.7598L3.13861 19.082C4.34955 15.166 7.94361 12.5 12.0124 12.5H12.7874C16.8561 12.5 20.4502 15.166 21.6611 19.082L24.6546 28.7598C25.168 30.4102 24.2574 32.1582 22.6202 32.6758C21.4189 33.0566 20.1595 32.6563 19.3749 31.7578V46.875C19.3749 48.6035 17.9895 50 16.2749 50C14.5602 50 13.1749 48.6035 13.1749 46.875V34.375H11.6249ZM30.9999 0C32.2883 0 33.3249 1.04492 33.3249 2.34375V47.6562C33.3249 48.9551 32.2883 50 30.9999 50C29.7114 50 28.6749 48.9551 28.6749 47.6562V2.34375C28.6749 1.04492 29.7114 0 30.9999 0ZM44.9499 4.6875C44.9499 3.4443 45.4398 2.25201 46.3118 1.37294C47.1839 0.49386 48.3666 0 49.5999 0C50.8331 0 52.0159 0.49386 52.8879 1.37294C53.76 2.25201 54.2499 3.4443 54.2499 4.6875C54.2499 5.9307 53.76 7.12299 52.8879 8.00206C52.0159 8.88114 50.8331 9.375 49.5999 9.375C48.3666 9.375 47.1839 8.88114 46.3118 8.00206C45.4398 7.12299 44.9499 5.9307 44.9499 4.6875ZM42.6249 46.875V37.5H40.9005C39.8446 37.5 39.0986 36.4551 39.428 35.4395L40.2999 32.8125C39.9899 32.8125 39.6799 32.7637 39.3796 32.666C37.7424 32.1484 36.8317 30.4004 37.3452 28.75L40.2224 19.4531C41.5011 15.3223 45.2986 12.5 49.5999 12.5C53.9011 12.5 57.6986 15.3223 58.9774 19.4531L61.8546 28.75C62.368 30.4004 61.4574 32.1484 59.8202 32.666C59.5102 32.7637 59.2002 32.8125 58.8999 32.8125L59.7717 35.4395C60.1108 36.4551 59.3552 37.5 58.2992 37.5H56.5749V46.875C56.5749 48.6035 55.1896 50 53.4749 50C51.7602 50 50.3749 48.6035 50.3749 46.875V37.5H48.8249V46.875C48.8249 48.6035 47.4396 50 45.7249 50C44.0102 50 42.6249 48.6035 42.6249 46.875Z" fill="#1C4E80"/>
</g>
<defs>
<clipPath id="clip0_671_1752">
<rect width="62" height="50" fill="white"/>
</clipPath>
</defs>
</svg>
