<svg width="82" height="82" viewBox="0 0 82 82" fill="none" xmlns="http://www.w3.org/2000/svg">
<g clip-path="url(#clip0_559_1685)">
<path d="M74.3125 41C74.3125 32.165 70.8028 23.6918 64.5555 17.4445C58.3082 11.1972 49.835 7.6875 41 7.6875C32.165 7.6875 23.6918 11.1972 17.4445 17.4445C11.1972 23.6918 7.6875 32.165 7.6875 41C7.6875 49.835 11.1972 58.3082 17.4445 64.5555C23.6918 70.8028 32.165 74.3125 41 74.3125C49.835 74.3125 58.3082 70.8028 64.5555 64.5555C70.8028 58.3082 74.3125 49.835 74.3125 41ZM0 41C0 30.1261 4.31963 19.6976 12.0086 12.0086C19.6976 4.31963 30.1261 0 41 0C51.8739 0 62.3024 4.31963 69.9914 12.0086C77.6804 19.6976 82 30.1261 82 41C82 51.8739 77.6804 62.3024 69.9914 69.9914C62.3024 77.6804 51.8739 82 41 82C30.1261 82 19.6976 77.6804 12.0086 69.9914C4.31963 62.3024 0 51.8739 0 41ZM29.2125 61.2598C27.2266 62.0926 24.9684 60.6031 25.8332 58.6332C28.3957 52.7715 34.2254 48.6875 41.016 48.6875C47.8066 48.6875 53.6363 52.7875 56.1988 58.6332C57.0637 60.6031 54.8055 62.0926 52.8195 61.2598C49.232 59.7383 45.2281 58.8895 41.016 58.8895C36.8039 58.8895 32.8 59.7383 29.2125 61.2598ZM23.1266 33.3125C23.1266 31.9533 23.6665 30.6497 24.6276 29.6886C25.5888 28.7275 26.8923 28.1875 28.2516 28.1875C29.6108 28.1875 30.9144 28.7275 31.8755 29.6886C32.8366 30.6497 33.3766 31.9533 33.3766 33.3125C33.3766 34.6717 32.8366 35.9753 31.8755 36.9364C30.9144 37.8975 29.6108 38.4375 28.2516 38.4375C26.8923 38.4375 25.5888 37.8975 24.6276 36.9364C23.6665 35.9753 23.1266 34.6717 23.1266 33.3125ZM53.8766 28.1875C55.2358 28.1875 56.5394 28.7275 57.5005 29.6886C58.4616 30.6497 59.0016 31.9533 59.0016 33.3125C59.0016 34.6717 58.4616 35.9753 57.5005 36.9364C56.5394 37.8975 55.2358 38.4375 53.8766 38.4375C52.5173 38.4375 51.2138 37.8975 50.2526 36.9364C49.2915 35.9753 48.7516 34.6717 48.7516 33.3125C48.7516 31.9533 49.2915 30.6497 50.2526 29.6886C51.2138 28.7275 52.5173 28.1875 53.8766 28.1875Z" fill="#44633F"/>
</g>
<defs>
<clipPath id="clip0_559_1685">
<rect width="82" height="82" fill="white"/>
</clipPath>
</defs>
</svg>
