<svg width="53" height="53" viewBox="0 0 53 53" fill="none" xmlns="http://www.w3.org/2000/svg">
<path d="M26.5 53C33.5282 53 40.2686 50.208 45.2383 45.2383C50.208 40.2686 53 33.5282 53 26.5C53 19.4718 50.208 12.7314 45.2383 7.76167C40.2686 2.79196 33.5282 0 26.5 0C19.4718 0 12.7314 2.79196 7.76167 7.76167C2.79196 12.7314 0 19.4718 0 26.5C0 33.5282 2.79196 40.2686 7.76167 45.2383C12.7314 50.208 19.4718 53 26.5 53ZM16.9869 33.6943C18.8398 35.8371 22.0074 38.0938 26.5 38.0938C30.9926 38.0938 34.1602 35.8371 36.0131 33.6943C36.6135 33.0008 37.659 32.9283 38.3525 33.5287C39.0461 34.1291 39.1186 35.1746 38.5182 35.8682C36.2098 38.5182 32.2037 41.4062 26.5 41.4062C20.7963 41.4062 16.7902 38.5182 14.4818 35.8682C13.8814 35.1746 13.9539 34.1291 14.6475 33.5287C15.341 32.9283 16.3865 33.0008 16.9869 33.6943ZM14.9477 21.5312C14.9477 20.6527 15.2967 19.8102 15.9179 19.189C16.5391 18.5677 17.3816 18.2187 18.2602 18.2188C19.1387 18.2187 19.9812 18.5677 20.6024 19.189C21.2237 19.8102 21.5727 20.6527 21.5727 21.5312C21.5727 22.4098 21.2237 23.2523 20.6024 23.8735C19.9812 24.4948 19.1387 24.8438 18.2602 24.8438C17.3816 24.8438 16.5391 24.4948 15.9179 23.8735C15.2967 23.2523 14.9477 22.4098 14.9477 21.5312ZM34.8227 18.2188C35.7012 18.2188 36.5437 18.5677 37.1649 19.189C37.7862 19.8102 38.1352 20.6527 38.1352 21.5312C38.1352 22.4098 37.7862 23.2523 37.1649 23.8735C36.5437 24.4948 35.7012 24.8438 34.8227 24.8438C33.9441 24.8438 33.1016 24.4948 32.4804 23.8735C31.8592 23.2523 31.5102 22.4098 31.5102 21.5312C31.5102 20.6527 31.8592 19.8102 32.4804 19.189C33.1016 18.5677 33.9441 18.2187 34.8227 18.2188Z" fill="#1C4E80"/>
</svg>
