<svg width="218" height="30" viewBox="0 0 218 30" fill="none" xmlns="http://www.w3.org/2000/svg">
<g clip-path="url(#clip0_282_2196)">
<path d="M15.5005 0C16.0235 0 16.5009 0.304688 16.7283 0.791016L20.6278 9.07031L29.3362 10.3945C29.8478 10.4707 30.2741 10.8398 30.4332 11.3496C30.5924 11.8594 30.4617 12.4102 30.0979 12.7852L23.7826 19.2422L25.2719 28.3594C25.3571 28.8867 25.1468 29.4199 24.7205 29.7363C24.2942 30.0527 23.7371 30.0879 23.2823 29.8359L15.4948 25.5469L7.71864 29.8301C7.25821 30.082 6.70114 30.0469 6.2805 29.7305C5.85986 29.4141 5.64386 28.8809 5.72912 28.3535L7.21842 19.2363L0.903124 12.7852C0.533642 12.4102 0.408587 11.8535 0.567748 11.3496C0.726909 10.8457 1.15323 10.4766 1.66482 10.3945L10.3732 9.07031L14.2727 0.791016C14.5057 0.304688 14.9775 0 15.5005 0ZM8.87824 17.7598L12.5162 10.9688C12.3173 11.3848 20.4679 10.6582 20.0189 10.7285L13.2943 11.748L14.2727 15.5C14.5853 15.8223 10.1061 18.5332 10.0322 18.9844L8.87824 25.9981L12.5162 21C10.9523 17.5371 16.3304 15.2773 16.7283 15.5L22.1227 25.9981L14.8582 16.5C14.7843 16.0488 18.462 16.8223 18.7803 16.5L26.2439 12.7734L27.5114 12.7734C27.068 12.7031 9.0772 26.4199 8.87824 25.9981V17.7598Z" fill="#D1884F"/>
</g>
<g clip-path="url(#clip1_282_2196)">
<path d="M61.5005 0C62.0235 0 62.5009 0.304688 62.7283 0.791016L66.6278 9.07031L75.3362 10.3945C75.8478 10.4707 76.2741 10.8398 76.4332 11.3496C76.5924 11.8594 76.4617 12.4102 76.0979 12.7852L69.7826 19.2422L71.2719 28.3594C71.3571 28.8867 71.1468 29.4199 70.7205 29.7363C70.2942 30.0527 69.7371 30.0879 69.2823 29.8359L61.4948 25.5469L53.7186 29.8301C53.2582 30.082 52.7011 30.0469 52.2805 29.7305C51.8599 29.4141 51.6439 28.8809 51.7291 28.3535L53.2184 19.2363L46.9031 12.7852C46.5336 12.4102 46.4086 11.8535 46.5677 11.3496C46.7269 10.8457 47.1532 10.4766 47.6648 10.3945L56.3732 9.07031L60.2727 0.791016C60.5057 0.304688 60.9775 0 61.5005 0ZM54.8782 17.7598L58.5162 10.9688C58.3173 11.3848 66.4679 10.6582 66.0189 10.7285L59.2943 11.748L60.2727 15.5C60.5853 15.8223 56.1061 18.5332 56.0322 18.9844L54.8782 25.9981L58.5162 21C56.9523 17.5371 62.3304 15.2773 62.7283 15.5L68.1227 25.9981L60.8582 16.5C60.7843 16.0488 64.462 16.8223 64.7803 16.5L72.2439 12.7734L73.5114 12.7734C73.068 12.7031 55.0772 26.4199 54.8782 25.9981V17.7598Z" fill="#D1884F"/>
</g>
<g clip-path="url(#clip2_282_2196)">
<path d="M107.5 0C108.023 0 108.501 0.304688 108.728 0.791016L112.628 9.07031L121.336 10.3945C121.848 10.4707 122.274 10.8398 122.433 11.3496C122.592 11.8594 122.462 12.4102 122.098 12.7852L115.783 19.2422L117.272 28.3594C117.357 28.8867 117.147 29.4199 116.72 29.7363C116.294 30.0527 115.737 30.0879 115.282 29.8359L107.495 25.5469L99.7186 29.8301C99.2582 30.082 98.7011 30.0469 98.2805 29.7305C97.8599 29.4141 97.6439 28.8809 97.7291 28.3535L99.2184 19.2363L92.9031 12.7852C92.5336 12.4102 92.4086 11.8535 92.5677 11.3496C92.7269 10.8457 93.1532 10.4766 93.6648 10.3945L102.373 9.07031L106.273 0.791016C106.506 0.304688 106.978 0 107.5 0ZM100.878 17.7598L104.516 10.9688C104.317 11.3848 112.468 10.6582 112.019 10.7285L105.294 11.748L106.273 15.5C106.585 15.8223 102.106 18.5332 102.032 18.9844L100.878 25.9981L104.516 21C102.952 17.5371 108.33 15.2773 108.728 15.5L114.123 25.9981L106.858 16.5C106.784 16.0488 110.462 16.8223 110.78 16.5L118.244 12.7734L119.511 12.7734C119.068 12.7031 101.077 26.4199 100.878 25.9981V17.7598Z" fill="#D1884F"/>
</g>
<g clip-path="url(#clip3_282_2196)">
<path d="M153.5 0C154.023 0 154.501 0.304688 154.728 0.791016L158.628 9.07031L167.336 10.3945C167.848 10.4707 168.274 10.8398 168.433 11.3496C168.592 11.8594 168.462 12.4102 168.098 12.7852L161.783 19.2422L163.272 28.3594C163.357 28.8867 163.147 29.4199 162.72 29.7363C162.294 30.0527 161.737 30.0879 161.282 29.8359L153.495 25.5469L145.719 29.8301C145.258 30.082 144.701 30.0469 144.281 29.7305C143.86 29.4141 143.644 28.8809 143.729 28.3535L145.218 19.2363L138.903 12.7852C138.534 12.4102 138.409 11.8535 138.568 11.3496C138.727 10.8457 139.153 10.4766 139.665 10.3945L148.373 9.07031L152.273 0.791016C152.506 0.304688 152.978 0 153.5 0ZM146.878 17.7598L150.516 10.9688C150.317 11.3848 158.468 10.6582 158.019 10.7285L151.294 11.748L152.273 15.5C152.585 15.8223 148.106 18.5332 148.032 18.9844L146.878 25.9981L150.516 21C148.952 17.5371 154.33 15.2773 154.728 15.5L160.123 25.9981L152.858 16.5C152.784 16.0488 156.462 16.8223 156.78 16.5L164.244 12.7734L165.511 12.7734C165.068 12.7031 147.077 26.4199 146.878 25.9981V17.7598Z" fill="#D1884F"/>
</g>
<g clip-path="url(#clip4_282_2196)">
<g clip-path="url(#clip5_282_2196)">
<path d="M200.494 0C201.021 0 201.502 0.304688 201.731 0.791016L205.662 9.07031L214.439 10.3945C214.954 10.4707 215.384 10.8398 215.544 11.3496C215.705 11.8594 215.573 12.4102 215.206 12.7852L208.841 19.2422L210.342 28.3594C210.428 28.8867 210.216 29.4199 209.787 29.7363C209.357 30.0527 208.795 30.0879 208.337 29.8359L200.488 25.5469L192.651 29.8301C192.187 30.082 191.625 30.0469 191.201 29.7305C190.777 29.4141 190.559 28.8809 190.645 28.3535L192.146 19.2363L185.781 12.7852C185.409 12.4102 185.283 11.8535 185.443 11.3496C185.604 10.8457 186.033 10.4766 186.549 10.3945L195.326 9.07031L199.256 0.791016C199.491 0.304688 199.967 0 200.494 0ZM200.494 4.62891L200.488 22.5381C200.288 22.9541 195.452 18.4297 195 18.5L189.671 12.7676L194.593 17.7539C194.908 18.0762 197.934 20.2152 197.86 20.6664L197.5 21L197.629 20.2755C198.036 20.0529 200.74 22.4824 201.141 22.7051L207.168 25.9981L206.011 18.9902C205.937 18.5391 206.08 18.082 206.401 17.7598L211.322 12.7734L204.544 11.748C204.097 11.6777 203.708 11.3906 203.507 10.9688L200.494 4.62891Z" fill="#D1884F"/>
</g>
</g>
<defs>
<clipPath id="clip0_282_2196">
<rect width="30" height="30" fill="white" transform="translate(0.5)"/>
</clipPath>
<clipPath id="clip1_282_2196">
<rect width="30" height="30" fill="white" transform="translate(46.5)"/>
</clipPath>
<clipPath id="clip2_282_2196">
<rect width="30" height="30" fill="white" transform="translate(92.5)"/>
</clipPath>
<clipPath id="clip3_282_2196">
<rect width="30" height="30" fill="white" transform="translate(138.5)"/>
</clipPath>
<clipPath id="clip4_282_2196">
<rect width="33" height="30" fill="white" transform="translate(184.5)"/>
</clipPath>
<clipPath id="clip5_282_2196">
<rect width="33" height="30" fill="white" transform="translate(184)"/>
</clipPath>
</defs>
</svg>
