<svg width="55" height="53" viewBox="0 0 55 53" fill="none" xmlns="http://www.w3.org/2000/svg">
<path d="M30.4599 1.86328C29.917 0.724609 28.7698 0 27.5099 0C26.25 0 25.113 0.724609 24.5599 1.86328L17.9736 15.5584L3.26455 17.7529C2.03538 17.9393 1.01108 18.8088 0.632084 19.9992C0.253091 21.1896 0.560382 22.5043 1.44128 23.3842L12.1145 34.0566L9.59476 49.1389C9.3899 50.3811 9.90205 51.6439 10.9161 52.3789C11.9302 53.1139 13.272 53.207 14.3783 52.617L27.5201 45.5262L40.6619 52.617C41.7682 53.207 43.11 53.1242 44.1241 52.3789C45.1382 51.6336 45.6503 50.3811 45.4455 49.1389L42.9154 34.0566L53.5887 23.3842C54.4696 22.5043 54.7871 21.1896 54.3979 19.9992C54.0086 18.8088 52.9946 17.9393 51.7654 17.7529L37.0461 15.5584L30.4599 1.86328Z" fill="#1C4E80"/>
</svg>
