<svg width="214" height="30" viewBox="0 0 214 30" fill="none" xmlns="http://www.w3.org/2000/svg">
<g clip-path="url(#clip0_531_1682)">
<path d="M15.0005 0C15.5235 0 16.0009 0.304688 16.2283 0.791016L20.1278 9.07031L28.8362 10.3945C29.3478 10.4707 29.7741 10.8398 29.9332 11.3496C30.0924 11.8594 29.9617 12.4102 29.5979 12.7852L23.2826 19.2422L24.7719 28.3594C24.8571 28.8867 24.6468 29.4199 24.2205 29.7363C23.7942 30.0527 23.2371 30.0879 22.7823 29.8359L14.9948 25.5469L7.21864 29.8301C6.75821 30.082 6.20114 30.0469 5.7805 29.7305C5.35986 29.4141 5.14386 28.8809 5.22912 28.3535L6.71842 19.2363L0.403124 12.7852C0.033642 12.4102 -0.0914134 11.8535 0.067748 11.3496C0.226909 10.8457 0.653234 10.4766 1.16482 10.3945L9.87322 9.07031L13.7727 0.791016C14.0057 0.304688 14.4775 0 15.0005 0ZM8.37824 17.7598L12.0162 10.9688C11.8173 11.3848 19.9679 10.6582 19.5189 10.7285L12.7943 11.748L13.7727 15.5C14.0853 15.8223 9.60606 18.5332 9.53216 18.9844L8.37824 25.998L12.0162 21C10.4523 17.5371 15.8304 15.2773 16.2283 15.5L21.6227 25.998L14.3582 16.5C14.2843 16.0488 17.962 16.8223 18.2803 16.5L25.7439 12.7734L27.0114 12.7734C26.568 12.7031 8.5772 26.4199 8.37824 25.998V17.7598Z" fill="#D1884F"/>
</g>
<g clip-path="url(#clip1_531_1682)">
<path d="M61.0005 0C61.5235 0 62.0009 0.304688 62.2283 0.791016L66.1278 9.07031L74.8362 10.3945C75.3478 10.4707 75.7741 10.8398 75.9332 11.3496C76.0924 11.8594 75.9617 12.4102 75.5979 12.7852L69.2826 19.2422L70.7719 28.3594C70.8571 28.8867 70.6468 29.4199 70.2205 29.7363C69.7942 30.0527 69.2371 30.0879 68.7823 29.8359L60.9948 25.5469L53.2186 29.8301C52.7582 30.082 52.2011 30.0469 51.7805 29.7305C51.3599 29.4141 51.1439 28.8809 51.2291 28.3535L52.7184 19.2363L46.4031 12.7852C46.0336 12.4102 45.9086 11.8535 46.0677 11.3496C46.2269 10.8457 46.6532 10.4766 47.1648 10.3945L55.8732 9.07031L59.7727 0.791016C60.0057 0.304688 60.4775 0 61.0005 0ZM54.3782 17.7598L58.0162 10.9688C57.8173 11.3848 65.9679 10.6582 65.5189 10.7285L58.7943 11.748L59.7727 15.5C60.0853 15.8223 55.6061 18.5332 55.5322 18.9844L54.3782 25.998L58.0162 21C56.4523 17.5371 61.8304 15.2773 62.2283 15.5L67.6227 25.998L60.3582 16.5C60.2843 16.0488 63.962 16.8223 64.2803 16.5L71.7439 12.7734L73.0114 12.7734C72.568 12.7031 54.5772 26.4199 54.3782 25.998V17.7598Z" fill="#D1884F"/>
</g>
<g clip-path="url(#clip2_531_1682)">
<path d="M107 0C107.523 0 108.001 0.304688 108.228 0.791016L112.128 9.07031L120.836 10.3945C121.348 10.4707 121.774 10.8398 121.933 11.3496C122.092 11.8594 121.962 12.4102 121.598 12.7852L115.283 19.2422L116.772 28.3594C116.857 28.8867 116.647 29.4199 116.22 29.7363C115.794 30.0527 115.237 30.0879 114.782 29.8359L106.995 25.5469L99.2186 29.8301C98.7582 30.082 98.2011 30.0469 97.7805 29.7305C97.3599 29.4141 97.1439 28.8809 97.2291 28.3535L98.7184 19.2363L92.4031 12.7852C92.0336 12.4102 91.9086 11.8535 92.0677 11.3496C92.2269 10.8457 92.6532 10.4766 93.1648 10.3945L101.873 9.07031L105.773 0.791016C106.006 0.304688 106.478 0 107 0ZM100.378 17.7598L104.016 10.9688C103.817 11.3848 111.968 10.6582 111.519 10.7285L104.794 11.748L105.773 15.5C106.085 15.8223 101.606 18.5332 101.532 18.9844L100.378 25.998L104.016 21C102.452 17.5371 107.83 15.2773 108.228 15.5L113.623 25.998L106.358 16.5C106.284 16.0488 109.962 16.8223 110.28 16.5L117.744 12.7734L119.011 12.7734C118.568 12.7031 100.577 26.4199 100.378 25.998V17.7598Z" fill="#D1884F"/>
</g>
<g clip-path="url(#clip3_531_1682)">
<path d="M153 0C153.523 0 154.001 0.304688 154.228 0.791016L158.128 9.07031L166.836 10.3945C167.348 10.4707 167.774 10.8398 167.933 11.3496C168.092 11.8594 167.962 12.4102 167.598 12.7852L161.283 19.2422L162.772 28.3594C162.857 28.8867 162.647 29.4199 162.22 29.7363C161.794 30.0527 161.237 30.0879 160.782 29.8359L152.995 25.5469L145.219 29.8301C144.758 30.082 144.201 30.0469 143.781 29.7305C143.36 29.4141 143.144 28.8809 143.229 28.3535L144.718 19.2363L138.403 12.7852C138.034 12.4102 137.909 11.8535 138.068 11.3496C138.227 10.8457 138.653 10.4766 139.165 10.3945L147.873 9.07031L151.773 0.791016C152.006 0.304688 152.478 0 153 0ZM146.378 17.7598L150.016 10.9688C149.817 11.3848 157.968 10.6582 157.519 10.7285L150.794 11.748L151.773 15.5C152.085 15.8223 147.606 18.5332 147.532 18.9844L146.378 25.998L150.016 21C148.452 17.5371 153.83 15.2773 154.228 15.5L159.623 25.998L152.358 16.5C152.284 16.0488 155.962 16.8223 156.28 16.5L163.744 12.7734L165.011 12.7734C164.568 12.7031 146.577 26.4199 146.378 25.998V17.7598Z" fill="#D1884F"/>
</g>
<g clip-path="url(#clip4_531_1682)">
<path d="M199 0C199.523 0 200.001 0.304688 200.228 0.791016L204.128 9.07031L212.836 10.3945C213.348 10.4707 213.774 10.8398 213.933 11.3496C214.092 11.8594 213.962 12.4102 213.598 12.7852L207.283 19.2422L208.772 28.3594C208.857 28.8867 208.647 29.4199 208.22 29.7363C207.794 30.0527 207.237 30.0879 206.782 29.8359L198.995 25.5469L191.219 29.8301C190.758 30.082 190.201 30.0469 189.781 29.7305C189.36 29.4141 189.144 28.8809 189.229 28.3535L190.718 19.2363L184.403 12.7852C184.034 12.4102 183.909 11.8535 184.068 11.3496C184.227 10.8457 184.653 10.4766 185.165 10.3945L193.873 9.07031L197.773 0.791016C198.006 0.304688 198.478 0 199 0ZM192.378 17.7598L196.016 10.9688C195.817 11.3848 203.968 10.6582 203.519 10.7285L196.794 11.748L197.773 15.5C198.085 15.8223 193.606 18.5332 193.532 18.9844L192.378 25.998L196.016 21C194.452 17.5371 199.83 15.2773 200.228 15.5L205.623 25.998L198.358 16.5C198.284 16.0488 201.962 16.8223 202.28 16.5L209.744 12.7734L211.011 12.7734C210.568 12.7031 192.577 26.4199 192.378 25.998V17.7598Z" fill="#D1884F"/>
</g>
<defs>
<clipPath id="clip0_531_1682">
<rect width="30" height="30" fill="white"/>
</clipPath>
<clipPath id="clip1_531_1682">
<rect width="30" height="30" fill="white" transform="translate(46)"/>
</clipPath>
<clipPath id="clip2_531_1682">
<rect width="30" height="30" fill="white" transform="translate(92)"/>
</clipPath>
<clipPath id="clip3_531_1682">
<rect width="30" height="30" fill="white" transform="translate(138)"/>
</clipPath>
<clipPath id="clip4_531_1682">
<rect width="30" height="30" fill="white" transform="translate(184)"/>
</clipPath>
</defs>
</svg>
