<svg width="216" height="30" viewBox="0 0 216 30" fill="none" xmlns="http://www.w3.org/2000/svg">
<g clip-path="url(#clip0_282_2220)">
<path d="M15.8814 -0.000976562C16.4043 -0.000976562 16.8818 0.303711 17.1092 0.790039L21.0086 9.06934L29.717 10.3936C30.2286 10.4697 30.6549 10.8389 30.8141 11.3486C30.9733 11.8584 30.8425 12.4092 30.4787 12.7842L24.1634 19.2412L25.6527 28.3584C25.738 28.8857 25.5277 29.4189 25.1013 29.7354C24.675 30.0518 24.118 30.0869 23.6632 29.835L15.8757 25.5459L8.0995 29.8291C7.63907 30.0811 7.082 30.0459 6.66136 29.7295C6.24072 29.4131 6.02472 28.8799 6.10998 28.3525L7.59928 19.2354L1.28398 12.7842C0.914501 12.4092 0.789446 11.8525 0.948607 11.3486C1.10777 10.8447 1.53409 10.4756 2.04568 10.3936L10.7541 9.06934L14.6535 0.790039C14.8866 0.303711 15.3584 -0.000976562 15.8814 -0.000976562ZM9.2591 17.7588L12.8971 10.9678C12.6981 11.3838 20.8488 10.6572 20.3997 10.7275L13.6751 11.7471L14.6535 15.499C14.9662 15.8213 10.4869 18.5322 10.413 18.9834L9.2591 25.9971L12.8971 20.999C11.3332 17.5361 16.7113 15.2764 17.1092 15.499L22.5036 25.9971L15.239 16.499C15.1651 16.0479 18.8428 16.8213 19.1611 16.499L26.6247 12.7725L27.8923 12.7725C27.4489 12.7022 9.45806 26.4189 9.2591 25.9971V17.7588Z" fill="#D1884F"/>
</g>
<g clip-path="url(#clip1_282_2220)">
<path d="M61.8814 -0.000976562C62.4043 -0.000976562 62.8818 0.303711 63.1092 0.790039L67.0086 9.06934L75.717 10.3936C76.2286 10.4697 76.6549 10.8389 76.8141 11.3486C76.9733 11.8584 76.8425 12.4092 76.4787 12.7842L70.1634 19.2412L71.6527 28.3584C71.738 28.8857 71.5277 29.4189 71.1013 29.7354C70.675 30.0518 70.118 30.0869 69.6632 29.835L61.8757 25.5459L54.0995 29.8291C53.6391 30.0811 53.082 30.0459 52.6614 29.7295C52.2407 29.4131 52.0247 28.8799 52.11 28.3525L53.5993 19.2354L47.284 12.7842C46.9145 12.4092 46.7894 11.8525 46.9486 11.3486C47.1078 10.8447 47.5341 10.4756 48.0457 10.3936L56.7541 9.06934L60.6535 0.790039C60.8866 0.303711 61.3584 -0.000976562 61.8814 -0.000976562ZM55.2591 17.7588L58.8971 10.9678C58.6981 11.3838 66.8488 10.6572 66.3997 10.7275L59.6751 11.7471L60.6535 15.499C60.9662 15.8213 56.4869 18.5322 56.413 18.9834L55.2591 25.9971L58.8971 20.999C57.3332 17.5361 62.7113 15.2764 63.1092 15.499L68.5036 25.9971L61.239 16.499C61.1651 16.0479 64.8428 16.8213 65.1611 16.499L72.6247 12.7725L73.8923 12.7725C73.4489 12.7022 55.4581 26.4189 55.2591 25.9971V17.7588Z" fill="#D1884F"/>
</g>
<g clip-path="url(#clip2_282_2220)">
<path d="M107.881 -0.000976562C108.404 -0.000976562 108.882 0.303711 109.109 0.790039L113.009 9.06934L121.717 10.3936C122.229 10.4697 122.655 10.8389 122.814 11.3486C122.973 11.8584 122.843 12.4092 122.479 12.7842L116.163 19.2412L117.653 28.3584C117.738 28.8857 117.528 29.4189 117.101 29.7354C116.675 30.0518 116.118 30.0869 115.663 29.835L107.876 25.5459L100.099 29.8291C99.6391 30.0811 99.082 30.0459 98.6614 29.7295C98.2407 29.4131 98.0247 28.8799 98.11 28.3525L99.5993 19.2354L93.284 12.7842C92.9145 12.4092 92.7894 11.8525 92.9486 11.3486C93.1078 10.8447 93.5341 10.4756 94.0457 10.3936L102.754 9.06934L106.654 0.790039C106.887 0.303711 107.358 -0.000976562 107.881 -0.000976562ZM101.259 17.7588L104.897 10.9678C104.698 11.3838 112.849 10.6572 112.4 10.7275L105.675 11.7471L106.654 15.499C106.966 15.8213 102.487 18.5322 102.413 18.9834L101.259 25.9971L104.897 20.999C103.333 17.5361 108.711 15.2764 109.109 15.499L114.504 25.9971L107.239 16.499C107.165 16.0479 110.843 16.8213 111.161 16.499L118.625 12.7725L119.892 12.7725C119.449 12.7022 101.458 26.4189 101.259 25.9971V17.7588Z" fill="#D1884F"/>
</g>
<g clip-path="url(#clip3_282_2220)">
<path d="M153.881 -0.000976562C154.404 -0.000976562 154.882 0.303711 155.109 0.790039L159.009 9.06934L167.717 10.3936C168.229 10.4697 168.655 10.8389 168.814 11.3486C168.973 11.8584 168.843 12.4092 168.479 12.7842L162.163 19.2412L163.653 28.3584C163.738 28.8857 163.528 29.4189 163.101 29.7354C162.675 30.0518 162.118 30.0869 161.663 29.835L153.876 25.5459L146.099 29.8291C145.639 30.0811 145.082 30.0459 144.661 29.7295C144.241 29.4131 144.025 28.8799 144.11 28.3525L145.599 19.2354L139.284 12.7842C138.915 12.4092 138.789 11.8525 138.949 11.3486C139.108 10.8447 139.534 10.4756 140.046 10.3936L148.754 9.06934L152.654 0.790039C152.887 0.303711 153.358 -0.000976562 153.881 -0.000976562ZM147.259 17.7588L150.897 10.9678C150.698 11.3838 158.849 10.6572 158.4 10.7275L151.675 11.7471L152.654 15.499C152.966 15.8213 148.487 18.5322 148.413 18.9834L147.259 25.9971L150.897 20.999C149.333 17.5361 154.711 15.2764 155.109 15.499L160.504 25.9971L153.239 16.499C153.165 16.0479 156.843 16.8213 157.161 16.499L164.625 12.7725L165.892 12.7725C165.449 12.7022 147.458 26.4189 147.259 25.9971V17.7588Z" fill="#D1884F"/>
</g>
<path d="M200 -0.000976562C200.527 -0.000976562 201.008 0.303711 201.237 0.790039L205.167 9.06934L213.944 10.3936C214.46 10.4697 214.89 10.8389 215.05 11.3486C215.211 11.8584 215.079 12.4092 214.712 12.7842L208.347 19.2412L209.848 28.3584C209.934 28.8857 209.722 29.4189 209.292 29.7354C208.863 30.0518 208.301 30.0869 207.843 29.835L199.994 25.5459L192.156 29.8291C191.692 30.0811 191.131 30.0459 190.707 29.7295C190.283 29.4131 190.065 28.8799 190.151 28.3525L191.652 19.2354L185.287 12.7842C184.915 12.4092 184.789 11.8525 184.949 11.3486C185.11 10.8447 185.539 10.4756 186.055 10.3936L194.832 9.06934L198.762 0.790039C198.997 0.303711 199.473 -0.000976562 200 -0.000976562ZM200 4.62793L196.992 10.9678C196.791 11.3838 196.407 11.6768 195.955 11.7471L189.177 12.7666L194.099 17.7529C194.414 18.0752 194.563 18.5322 194.488 18.9834L193.325 25.9971L199.352 22.7041C199.759 22.4814 200.246 22.4814 200.647 22.7041L206.674 25.9971L205.517 18.9893C205.442 18.5381 205.586 18.0811 205.906 17.7588L210.828 12.7725L204.05 11.7471C203.603 11.6768 203.214 11.3896 203.013 10.9678L200 4.62793Z" fill="#D1884F"/>
<defs>
<clipPath id="clip0_282_2220">
<rect width="30" height="30" fill="white" transform="translate(0.880859 -0.000976562)"/>
</clipPath>
<clipPath id="clip1_282_2220">
<rect width="30" height="30" fill="white" transform="translate(46.8809 -0.000976562)"/>
</clipPath>
<clipPath id="clip2_282_2220">
<rect width="30" height="30" fill="white" transform="translate(92.8809 -0.000976562)"/>
</clipPath>
<clipPath id="clip3_282_2220">
<rect width="30" height="30" fill="white" transform="translate(138.881 -0.000976562)"/>
</clipPath>
</defs>
</svg>
