<svg width="67" height="53" viewBox="0 0 67 53" fill="none" xmlns="http://www.w3.org/2000/svg">
<path d="M25.3134 11.5834C26.2452 12.6082 26.1614 14.1713 25.125 15.0926L16.75 22.5457C15.7973 23.3945 14.3422 23.3945 13.3895 22.5457L5.01453 15.0926C3.97813 14.1713 3.89437 12.6082 4.82609 11.5834C5.75781 10.5586 7.33859 10.4758 8.375 11.3971L12.552 15.1236L12.5625 2.48438C12.5625 1.10762 13.6827 0 15.075 0C16.4673 0 17.5875 1.10762 17.5875 2.48438V15.1236L21.7645 11.3971C22.8009 10.4758 24.3817 10.5586 25.3134 11.5834ZM38.1691 13.9229C39.373 13.0223 41.027 13.0223 42.2309 13.9229L59.8184 27.1729C60.5094 27.6904 60.97 28.4668 61.1061 29.3156L63.6186 45.8781L63.6919 46.3646C65.5239 46.3854 67 47.8553 67 49.6771C67 51.5094 65.503 52.9896 63.65 52.9896H3.35C1.49703 52.9896 0 51.5094 0 49.6771C0 47.8449 1.49703 46.3646 3.35 46.3646H16.7081L16.7814 45.8781L19.2939 29.3156C19.4195 28.4668 19.8802 27.6904 20.5816 27.1729L38.1691 13.9229ZM40.2 46.375H48.575L42.1577 33.6943C41.9797 33.3424 41.6237 33.125 41.2364 33.125C40.6606 33.125 40.2 33.5805 40.2 34.1498V46.375Z" fill="#1C4E80"/>
</svg>
