<svg width="112" height="90" viewBox="0 0 112 90" fill="none" xmlns="http://www.w3.org/2000/svg">
<g clip-path="url(#clip0_606_1682)">
<path d="M69.4041 1.14282L41.2641 22.6936C42.9441 23.01 44.5716 23.7131 45.9891 24.803L75.3891 47.303C77.6991 49.0784 79.2391 51.6799 79.6766 54.5803L80.7616 61.8752H106.399C108.027 61.8752 109.584 61.1545 110.634 59.9241C111.684 58.6936 112.174 57.0413 111.929 55.4241L107.729 27.2991C107.519 25.8577 106.749 24.5393 105.577 23.6604L76.1766 1.1604C74.1641 -0.368897 71.3991 -0.368897 69.3866 1.1604L69.4041 1.14282ZM42.5941 29.2678C40.5816 27.7385 37.8166 27.7385 35.8041 29.2678L6.40415 51.7678C5.24915 52.6467 4.47915 53.9651 4.25165 55.4065L0.0516485 83.5315C-0.193351 85.1487 0.279148 86.801 1.34665 88.0315C2.41415 89.262 3.97165 90.0002 5.59915 90.0002H30.7991H33.5991C36.6966 90.0002 39.1991 87.4866 39.1991 84.3752V63.6155C39.1991 62.6487 39.9691 61.8752 40.9316 61.8752C41.5791 61.8752 42.1916 62.2444 42.4716 62.842L54.4416 86.8889C55.3866 88.7873 57.3292 90.0002 59.4467 90.0002H69.9991H72.7991C74.4266 90.0002 75.9842 89.2795 77.0342 88.0491C78.0842 86.8186 78.5741 85.1663 78.3291 83.5491L74.1291 55.4241C73.9191 53.9827 73.1491 52.6643 71.9766 51.7854L42.5766 29.2854L42.5941 29.2678Z" fill="#1C4E80"/>
</g>
<defs>
<clipPath id="clip0_606_1682">
<rect width="112" height="90" fill="white"/>
</clipPath>
</defs>
</svg>
