<svg width="63" height="50" viewBox="0 0 63 50" fill="none" xmlns="http://www.w3.org/2000/svg">
<g clip-path="url(#clip0_671_1746)">
<path d="M22.05 25C25.3917 25 28.5966 23.683 30.9595 21.3388C33.3225 18.9946 34.65 15.8152 34.65 12.5C34.65 9.18479 33.3225 6.00537 30.9595 3.66117C28.5966 1.31696 25.3917 0 22.05 0C18.7083 0 15.5034 1.31696 13.1405 3.66117C10.7775 6.00537 9.45 9.18479 9.45 12.5C9.45 15.8152 10.7775 18.9946 13.1405 21.3388C15.5034 23.683 18.7083 25 22.05 25ZM17.5514 29.6875C7.85531 29.6875 0 37.4805 0 47.0996C0 48.7012 1.30922 50 2.92359 50H41.1764C41.3536 50 41.5209 49.9805 41.6981 49.9512C34.1873 44.5703 31.8741 36.1816 31.5492 30.4004C29.9644 29.9316 28.2909 29.6875 26.5584 29.6875H17.5514ZM47.9489 22.041L36.1364 26.7285C35.2406 27.0898 34.65 27.9492 34.65 28.9063C34.65 35.0879 37.1995 45.3906 47.9194 49.8242C48.5002 50.0684 49.1597 50.0684 49.7405 49.8242C60.4505 45.3906 63 35.0879 63 28.9063C63 27.9492 62.4094 27.0898 61.5136 26.7285L49.7011 22.041C49.14 21.8164 48.51 21.8164 47.9489 22.041ZM58.2159 30.4688C57.832 35.4199 55.5384 41.8652 48.825 45.0879V26.7383L58.2159 30.4688Z" fill="#1C4E80"/>
</g>
<defs>
<clipPath id="clip0_671_1746">
<rect width="63" height="50" fill="white"/>
</clipPath>
</defs>
</svg>
