<svg width="96" height="67" viewBox="0 0 96 67" fill="none" xmlns="http://www.w3.org/2000/svg">
<rect width="96" height="67" rx="33.5" fill="white"/>
<path d="M48.3017 4.14417C48.6656 4.67628 49.1213 5.40011 49.5749 6.27169C50.5948 8.23179 51.5708 10.876 51.5277 13.7377C51.4846 16.5994 50.4294 19.213 49.3509 21.1415C48.8714 21.999 48.3941 22.7088 48.0143 23.2297C47.6505 22.6976 47.1948 21.9738 46.7412 21.1022C45.7213 19.1421 44.7453 16.4979 44.7884 13.6362C44.8315 10.7745 45.8866 8.16089 46.9652 6.23239C47.4447 5.37486 47.922 4.66508 48.3017 4.14417Z" fill="black" stroke="white" stroke-width="2"/>
<path d="M62.3614 24.6622C60.7368 30.6674 57.129 35.5655 53.8867 38.9833C52.2701 40.6874 50.7566 42.0107 49.6497 42.906C49.3471 43.1508 49.0752 43.3634 48.8402 43.5428C48.7277 43.2694 48.6 42.9487 48.4621 42.5848C47.9575 41.2535 47.3175 39.3476 46.7805 37.0609C45.7035 32.4747 45.057 26.4257 46.6815 20.4205C48.3061 14.4153 51.9139 9.5172 55.1562 6.09946C56.7728 4.39535 58.2863 3.07209 59.3932 2.17671C59.6958 1.93193 59.9677 1.71936 60.2027 1.53997C60.3152 1.81337 60.4429 2.13403 60.5808 2.49798C61.0854 3.8293 61.7254 5.73512 62.2624 8.02183C63.3394 12.608 63.9859 18.657 62.3614 24.6622Z" fill="black" stroke="white" stroke-width="2"/>
<path d="M35.8128 1.53997C36.0478 1.71937 36.3197 1.93193 36.6223 2.17671C37.7293 3.07209 39.2428 4.39535 40.8594 6.09945C44.1016 9.5172 47.7095 14.4153 49.334 20.4205C50.9585 26.4257 50.312 32.4747 49.235 37.0609C48.698 39.3476 48.058 41.2535 47.5535 42.5848C47.4155 42.9487 47.2879 43.2694 47.1754 43.5428C46.9404 43.3634 46.6684 43.1508 46.3658 42.906C45.2589 42.0107 43.7454 40.6874 42.1288 38.9833C38.8866 35.5655 35.2787 30.6674 33.6542 24.6622C32.0297 18.657 32.6761 12.608 33.7532 8.02183C34.2902 5.73512 34.9302 3.8293 35.4347 2.49798C35.5727 2.13403 35.7003 1.81337 35.8128 1.53997Z" fill="black" stroke="white" stroke-width="2"/>
<path d="M36.9408 22.9645C41.3985 27.3039 43.9244 32.8382 45.3346 37.3331C46.0377 39.5743 46.4581 41.5403 46.7023 42.9429C46.7691 43.3264 46.8226 43.6673 46.8651 43.9599C46.5715 43.9253 46.2292 43.8809 45.8441 43.8245C44.4354 43.6181 42.4589 43.2507 40.1996 42.6081C35.6683 41.3194 30.0681 38.9432 25.6104 34.6038C21.1527 30.2644 18.6268 24.7301 17.2166 20.2352C16.5135 17.994 16.0931 16.028 15.8489 14.6254C15.7821 14.2419 15.7286 13.901 15.6861 13.6084C15.9797 13.643 16.322 13.6874 16.7071 13.7438C18.1158 13.9502 20.0923 14.3176 22.3516 14.9602C26.8829 16.2489 32.4831 18.6251 36.9408 22.9645Z" fill="black" stroke="white" stroke-width="2"/>
<path d="M80.3299 13.6084C80.2874 13.901 80.2339 14.2419 80.1671 14.6254C79.9229 16.028 79.5025 17.994 78.7994 20.2352C77.3893 24.7301 74.8633 30.2644 70.4056 34.6038C65.9479 38.9432 60.3477 41.3194 55.8165 42.6081C53.5572 43.2507 51.5806 43.6181 50.1719 43.8245C49.7868 43.8809 49.4445 43.9253 49.1509 43.9599C49.1934 43.6673 49.247 43.3264 49.3137 42.9429C49.558 41.5403 49.9784 39.5743 50.6815 37.3331C52.0916 32.8382 54.6175 27.3039 59.0753 22.9645C63.533 18.6251 69.1331 16.2489 73.6644 14.9602C75.9237 14.3176 77.9003 13.9502 79.3089 13.7438C79.694 13.6874 80.0363 13.643 80.3299 13.6084Z" fill="black" stroke="white" stroke-width="2"/>
<path d="M53.7968 41.7032L54.0251 41.5013L54.102 41.2065C54.6673 39.039 55.9199 37.0756 57.7999 35.4655C59.6831 33.8526 62.1526 32.6327 65.0474 31.9239C68.9279 31.0029 73.3945 31.0225 77.9603 31.0425C78.9473 31.0468 79.939 31.0512 80.9304 31.0461C85.6069 31.0219 90.3142 30.7863 94.1064 29.1075C93.4896 32.1712 92.0917 35.0195 89.9643 37.5139C87.3992 40.5214 83.8226 42.9552 79.4596 44.6167C75.0963 46.2782 70.0685 47.1203 64.7299 47.066C59.9503 47.0173 55.0387 46.2513 50.2788 44.8139L53.7968 41.7032Z" fill="black" stroke="white" stroke-width="2"/>
<path d="M42.1995 41.7031L41.9712 41.5013L41.8943 41.2064C41.3289 39.0389 40.0764 37.0755 38.1965 35.4654C36.3133 33.8524 33.8439 32.6325 30.9492 31.9237C27.0689 31.0026 22.6026 31.0221 18.0372 31.0421C17.0502 31.0464 16.0586 31.0507 15.0672 31.0456C10.391 31.0213 5.68408 30.7857 1.89204 29.1068C2.50885 32.1706 3.90672 35.0189 6.03405 37.5132C8.59907 40.5207 12.1755 42.9546 16.5383 44.6162C20.9013 46.2778 25.9289 47.1199 31.2672 47.0657C36.0465 47.0171 40.9577 46.2512 45.7174 44.8139L42.1995 41.7031Z" fill="black" stroke="white" stroke-width="2"/>
<path d="M14.374 57.1458H17.594C17.7713 56.9218 17.902 56.6324 17.986 56.2778C18.0793 55.9231 18.1307 55.7318 18.14 55.7038L18.742 55.7878L18.364 57.9998H11.602L11.686 57.4398C12.2647 57.3744 12.7173 57.2438 13.044 57.0478L13.044 49.4878C12.708 49.3011 12.2273 49.1704 11.602 49.0958L11.672 48.5358H15.816L15.732 49.0958C15.1533 49.1611 14.7007 49.2918 14.374 49.4878L14.374 57.1458ZM20.8477 54.4578C20.8477 55.5031 20.9877 56.2591 21.2677 56.7258C21.5477 57.1831 22.0004 57.4118 22.6257 57.4118C23.2604 57.4118 23.7177 57.1831 23.9977 56.7258C24.2777 56.2591 24.4177 55.5078 24.4177 54.4718C24.4177 53.4264 24.2777 52.6751 23.9977 52.2178C23.7177 51.7511 23.2604 51.5178 22.6257 51.5178C21.991 51.5178 21.5337 51.7464 21.2537 52.2038C20.983 52.6611 20.8477 53.4124 20.8477 54.4578ZM24.9497 57.1878C24.427 57.8038 23.6524 58.1118 22.6257 58.1118C21.599 58.1118 20.8197 57.8038 20.2877 57.1878C19.765 56.5624 19.5037 55.6571 19.5037 54.4718C19.5037 53.2771 19.765 52.3718 20.2877 51.7558C20.8197 51.1304 21.599 50.8178 22.6257 50.8178C23.6524 50.8178 24.427 51.1304 24.9497 51.7558C25.4817 52.3718 25.7477 53.2771 25.7477 54.4718C25.7477 55.6571 25.4817 56.5624 24.9497 57.1878ZM27.8382 56.2498V51.6998H26.6062V51.2798C27.5955 50.9438 28.2395 50.3324 28.5382 49.4458H29.1402V50.9158H30.8482V51.6998H29.1262V56.3618C29.1262 56.7351 29.1682 57.0011 29.2522 57.1598C29.3362 57.3184 29.5275 57.3978 29.8262 57.3978C30.1248 57.3978 30.4375 57.2998 30.7642 57.1038L31.0582 57.5518C30.5915 57.9251 30.0502 58.1118 29.4342 58.1118C28.8182 58.1118 28.3982 57.9718 28.1742 57.6918C27.9502 57.4024 27.8382 56.9218 27.8382 56.2498ZM32.5761 55.6758V52.7358C32.5761 52.3624 32.4967 52.1104 32.3381 51.9798C32.1887 51.8398 31.9181 51.7604 31.5261 51.7418L31.5681 51.2938C31.9507 51.2284 32.6181 51.0558 33.5701 50.7758L33.8641 50.9298V55.8438C33.8641 56.8984 34.2981 57.4258 35.1661 57.4258C35.4274 57.4258 35.7027 57.3324 35.9921 57.1458C36.2814 56.9498 36.5381 56.6464 36.7621 56.2358V52.7358C36.7621 52.3624 36.6827 52.1104 36.5241 51.9798C36.3747 51.8398 36.1041 51.7604 35.7121 51.7418L35.7541 51.2938C36.1367 51.2284 36.8041 51.0558 37.7561 50.7758L38.0501 50.9298V57.0758C38.2834 57.2531 38.6334 57.3884 39.1001 57.4818L39.0441 57.9998H37.0421L36.8881 57.0478C36.3467 57.7571 35.7167 58.1118 34.9981 58.1118C33.3834 58.1118 32.5761 57.2998 32.5761 55.6758ZM41.5765 57.2718C41.9219 57.3744 42.2952 57.4258 42.6965 57.4258C43.0979 57.4258 43.4245 57.3138 43.6765 57.0898C43.9285 56.8564 44.0545 56.5858 44.0545 56.2778C44.0545 55.9698 43.9612 55.7224 43.7745 55.5358C43.5972 55.3398 43.3732 55.1998 43.1025 55.1158C42.8319 55.0224 42.5332 54.9151 42.2065 54.7938C41.8892 54.6724 41.5952 54.5464 41.3245 54.4158C41.0539 54.2851 40.8252 54.0751 40.6385 53.7858C40.4612 53.4871 40.3725 53.1278 40.3725 52.7078C40.3725 52.1384 40.5965 51.6858 41.0445 51.3498C41.5019 51.0044 42.0759 50.8318 42.7665 50.8318C43.4665 50.8318 44.0405 50.9764 44.4885 51.2658C44.9365 51.5458 45.1605 51.8911 45.1605 52.3018C45.1605 52.8244 44.9272 53.0858 44.4605 53.0858C44.1059 53.0858 43.8399 52.9504 43.6625 52.6798C43.8212 52.5491 43.9005 52.3764 43.9005 52.1618C43.9005 51.9378 43.7885 51.7604 43.5645 51.6298C43.3499 51.4991 43.0652 51.4338 42.7105 51.4338C42.3652 51.4338 42.0759 51.5271 41.8425 51.7138C41.6185 51.8911 41.5065 52.1431 41.5065 52.4698C41.5065 52.7964 41.6325 53.0671 41.8845 53.2818C42.1459 53.4964 42.4585 53.6644 42.8225 53.7858C43.1865 53.8978 43.5505 54.0238 43.9145 54.1638C44.2879 54.2944 44.6005 54.5091 44.8525 54.8078C45.1139 55.1064 45.2445 55.4844 45.2445 55.9418C45.2445 56.6231 45.0112 57.1504 44.5445 57.5238C44.0779 57.8971 43.4199 58.0838 42.5705 58.0838C42.2252 58.0838 41.8239 58.0278 41.3665 57.9158C40.9185 57.7944 40.5825 57.6591 40.3585 57.5098V55.6478L41.1705 55.5498C41.2359 56.3151 41.3712 56.8891 41.5765 57.2718ZM54.415 58.0978C52.931 58.0978 51.8436 57.7104 51.153 56.9358C50.4716 56.1611 50.131 54.9478 50.131 53.2958C50.131 50.0664 51.559 48.4518 54.415 48.4518C55.535 48.4518 56.3843 48.7271 56.963 49.2778C57.2803 49.5858 57.439 49.9358 57.439 50.3278C57.439 50.7198 57.3503 51.0278 57.173 51.2518C57.005 51.4758 56.809 51.5878 56.585 51.5878C56.3703 51.5878 56.179 51.5364 56.011 51.4338C55.8523 51.3218 55.7496 51.1771 55.703 50.9998C55.8896 50.7291 55.983 50.4538 55.983 50.1738C55.983 49.8844 55.8383 49.6558 55.549 49.4878C55.269 49.3104 54.8956 49.2218 54.429 49.2218C53.4303 49.2218 52.7116 49.5438 52.273 50.1878C51.8343 50.8224 51.615 51.8584 51.615 53.2958C51.615 54.7331 51.8296 55.7644 52.259 56.3898C52.6883 57.0151 53.407 57.3278 54.415 57.3278C54.7416 57.3278 55.087 57.2624 55.451 57.1318C56.151 56.8704 56.641 56.3524 56.921 55.5778L57.621 55.8298C57.4716 56.2311 57.271 56.5858 57.019 56.8938C56.767 57.1924 56.5196 57.4164 56.277 57.5658C56.0343 57.7151 55.7683 57.8318 55.479 57.9158C55.0683 58.0371 54.7136 58.0978 54.415 58.0978ZM60.5535 58.1118C59.9562 58.1118 59.4895 57.9624 59.1535 57.6638C58.8269 57.3558 58.6635 56.9031 58.6635 56.3058C58.6635 55.6991 58.8922 55.2091 59.3495 54.8358C59.8162 54.4624 60.4929 54.2431 61.3795 54.1778L62.5695 54.0938V52.8618C62.5695 52.3578 62.4669 51.9938 62.2615 51.7698C62.0655 51.5364 61.7482 51.4198 61.3095 51.4198C60.5162 51.4198 60.1195 51.6484 60.1195 52.1058C60.1195 52.3578 60.2735 52.5444 60.5815 52.6658C60.5815 53.1418 60.2922 53.3798 59.7135 53.3798C59.4522 53.3798 59.2422 53.3004 59.0835 53.1418C58.9249 52.9831 58.8455 52.7731 58.8455 52.5118C58.8455 51.9891 59.0649 51.5784 59.5035 51.2798C59.9515 50.9718 60.5629 50.8178 61.3375 50.8178C62.1215 50.8178 62.7375 50.9998 63.1855 51.3638C63.6335 51.7184 63.8575 52.2178 63.8575 52.8618V57.0758C64.0909 57.2531 64.4409 57.3884 64.9075 57.4818L64.8515 57.9998H62.7655L62.6115 57.3278C62.0609 57.8504 61.3749 58.1118 60.5535 58.1118ZM59.9935 56.2498C59.9935 57.0711 60.3109 57.4818 60.9455 57.4818C61.4495 57.4818 61.9909 57.1924 62.5695 56.6138V54.7098L61.4355 54.8078C60.9875 54.8451 60.6329 54.9944 60.3715 55.2558C60.1195 55.5171 59.9935 55.8484 59.9935 56.2498ZM66.5709 52.7638C66.5709 52.3904 66.4916 52.1384 66.3329 52.0078C66.1836 51.8678 65.9129 51.7884 65.5209 51.7698L65.5629 51.3218C65.7682 51.2844 66.3842 51.1164 67.4109 50.8178L67.6769 50.9578L67.7889 51.7418C67.8636 51.6484 67.9569 51.5458 68.0689 51.4338C68.1902 51.3218 68.3956 51.1911 68.6849 51.0418C68.9836 50.8924 69.2822 50.8178 69.5809 50.8178C70.4862 50.8178 71.1302 51.1444 71.5129 51.7978C72.1662 51.1444 72.8242 50.8178 73.4869 50.8178C74.1496 50.8178 74.6909 50.9998 75.1109 51.3638C75.5402 51.7278 75.7549 52.3018 75.7549 53.0858V57.0758C75.9882 57.2531 76.3382 57.3884 76.8049 57.4818L76.7489 57.9998H73.4309L73.4729 57.4818C73.8462 57.4258 74.1776 57.2904 74.4669 57.0758V53.0438C74.4669 52.0451 74.0889 51.5458 73.3329 51.5458C72.9969 51.5458 72.6796 51.6718 72.3809 51.9238C72.0916 52.1664 71.9002 52.4324 71.8069 52.7218V57.0758C72.0402 57.2531 72.3902 57.3884 72.8569 57.4818L72.8009 57.9998H69.4829L69.5249 57.4818C69.8982 57.4258 70.2296 57.2904 70.5189 57.0758V53.0438C70.5189 52.0451 70.1409 51.5458 69.3849 51.5458C69.0489 51.5458 68.7316 51.6718 68.4329 51.9238C68.1436 52.1664 67.9522 52.4324 67.8589 52.7218V57.0758C68.1109 57.2624 68.4609 57.3978 68.9089 57.4818L68.8529 57.9998H65.5209L65.5769 57.4538C65.9782 57.3884 66.3096 57.2624 66.5709 57.0758V52.7638ZM78.4775 52.7638C78.4775 52.3904 78.3981 52.1384 78.2395 52.0078C78.0901 51.8678 77.8195 51.7884 77.4275 51.7698L77.4695 51.3218C77.6748 51.2844 78.2908 51.1164 79.3175 50.8178L79.5835 50.9578L79.7095 51.8678C80.1201 51.1771 80.7595 50.8318 81.6275 50.8318C83.4195 50.8318 84.3155 51.9938 84.3155 54.3178C84.3155 55.5498 84.0308 56.4924 83.4615 57.1458C82.8921 57.7898 82.0708 58.1118 80.9975 58.1118C80.6055 58.1118 80.1948 58.0324 79.7655 57.8738V60.2678C80.0175 60.4544 80.3675 60.5898 80.8155 60.6738L80.7595 61.1918H77.4275L77.4835 60.6458C77.8848 60.5804 78.2161 60.4544 78.4775 60.2678V52.7638ZM79.7655 54.3318V57.1738C80.1015 57.3698 80.5495 57.4678 81.1095 57.4678C81.6695 57.4678 82.1221 57.1924 82.4675 56.6418C82.8128 56.0911 82.9855 55.3258 82.9855 54.3458C82.9855 53.3564 82.8641 52.6331 82.6215 52.1758C82.3788 51.7091 82.0008 51.4758 81.4875 51.4758C80.3395 51.4758 79.7655 52.4278 79.7655 54.3318Z" fill="black"/>
</svg>
