<svg width="96" height="67" viewBox="0 0 96 67" fill="none" xmlns="http://www.w3.org/2000/svg">
<rect width="96" height="67" rx="33.5" fill="#1C4E80"/>
<path d="M48.3022 4.14392C48.6661 4.67604 49.1218 5.39987 49.5753 6.27144C50.5953 8.23155 51.5713 10.8758 51.5282 13.7375C51.4851 16.5991 50.4299 19.2128 49.3514 21.1413C48.8719 21.9988 48.3946 22.7086 48.0148 23.2295C47.651 22.6974 47.1953 21.9736 46.7417 21.102C45.7218 19.1419 44.7458 16.4977 44.7888 13.636C44.8319 10.7743 45.8871 8.16064 46.9656 6.23214C47.4452 5.37462 47.9225 4.66484 48.3022 4.14392Z" fill="white" stroke="#1C4E80" stroke-width="2"/>
<path d="M62.3618 24.6622C60.7373 30.6674 57.1295 35.5655 53.8872 38.9833C52.2706 40.6874 50.7571 42.0107 49.6502 42.906C49.3476 43.1508 49.0757 43.3634 48.8407 43.5428C48.7282 43.2694 48.6005 42.9487 48.4626 42.5848C47.958 41.2535 47.318 39.3476 46.781 37.0609C45.704 32.4747 45.0575 26.4257 46.682 20.4205C48.3065 14.4153 51.9144 9.5172 55.1567 6.09946C56.7733 4.39535 58.2868 3.07209 59.3937 2.17671C59.6963 1.93193 59.9682 1.71936 60.2032 1.53997C60.3157 1.81337 60.4434 2.13403 60.5813 2.49798C61.0859 3.8293 61.7259 5.73512 62.2629 8.02183C63.3399 12.608 63.9864 18.657 62.3618 24.6622Z" fill="white" stroke="#1C4E80" stroke-width="2"/>
<path d="M35.8138 1.53997C36.0488 1.71937 36.3207 1.93193 36.6233 2.17671C37.7302 3.07209 39.2437 4.39535 40.8603 6.09945C44.1026 9.5172 47.7104 14.4153 49.335 20.4205C50.9595 26.4257 50.313 32.4747 49.236 37.0609C48.699 39.3476 48.059 41.2535 47.5544 42.5848C47.4165 42.9487 47.2888 43.2694 47.1763 43.5428C46.9413 43.3634 46.6694 43.1508 46.3668 42.906C45.2599 42.0107 43.7464 40.6874 42.1298 38.9833C38.8876 35.5655 35.2797 30.6674 33.6552 24.6622C32.0306 18.657 32.6771 12.608 33.7541 8.02183C34.2912 5.73512 34.9312 3.8293 35.4357 2.49798C35.5736 2.13403 35.7013 1.81337 35.8138 1.53997Z" fill="white" stroke="#1C4E80" stroke-width="2"/>
<path d="M36.9408 22.9645C41.3985 27.3039 43.9244 32.8382 45.3346 37.3331C46.0377 39.5743 46.4581 41.5403 46.7023 42.9429C46.7691 43.3264 46.8226 43.6673 46.8651 43.9599C46.5715 43.9253 46.2292 43.8809 45.8441 43.8245C44.4354 43.6181 42.4589 43.2507 40.1996 42.6081C35.6683 41.3194 30.0681 38.9432 25.6104 34.6038C21.1527 30.2644 18.6268 24.7301 17.2166 20.2352C16.5135 17.994 16.0931 16.028 15.8489 14.6254C15.7821 14.2419 15.7286 13.901 15.6861 13.6084C15.9797 13.643 16.322 13.6874 16.7071 13.7438C18.1158 13.9502 20.0923 14.3176 22.3516 14.9602C26.8829 16.2489 32.4831 18.6251 36.9408 22.9645Z" fill="white" stroke="#1C4E80" stroke-width="2"/>
<path d="M80.3304 13.6084C80.2879 13.901 80.2344 14.2419 80.1676 14.6254C79.9234 16.028 79.503 17.994 78.7999 20.2352C77.3898 24.7301 74.8638 30.2644 70.4061 34.6038C65.9484 38.9432 60.3482 41.3194 55.817 42.6081C53.5577 43.2507 51.5811 43.6181 50.1724 43.8245C49.7873 43.8809 49.445 43.9253 49.1514 43.9599C49.1939 43.6673 49.2475 43.3264 49.3142 42.9429C49.5585 41.5403 49.9789 39.5743 50.682 37.3331C52.0921 32.8382 54.618 27.3039 59.0758 22.9645C63.5335 18.6251 69.1336 16.2489 73.6649 14.9602C75.9242 14.3176 77.9008 13.9502 79.3094 13.7438C79.6945 13.6874 80.0368 13.643 80.3304 13.6084Z" fill="white" stroke="#1C4E80" stroke-width="2"/>
<path d="M53.7978 41.7032L54.0261 41.5013L54.103 41.2065C54.6683 39.039 55.9208 37.0756 57.8008 35.4655C59.6841 33.8526 62.1536 32.6327 65.0484 31.9239C68.9289 31.0029 73.3955 31.0225 77.9613 31.0425C78.9483 31.0468 79.94 31.0512 80.9314 31.0461C85.6079 31.0219 90.3151 30.7863 94.1074 29.1075C93.4906 32.1712 92.0927 35.0195 89.9653 37.5139C87.4001 40.5214 83.8236 42.9552 79.4606 44.6167C75.0973 46.2782 70.0695 47.1203 64.7308 47.066C59.9513 47.0173 55.0397 46.2513 50.2798 44.8139L53.7978 41.7032Z" fill="white" stroke="#1C4E80" stroke-width="2"/>
<path d="M42.1995 41.7031L41.9712 41.5013L41.8943 41.2064C41.3289 39.0389 40.0764 37.0755 38.1965 35.4654C36.3133 33.8524 33.8439 32.6325 30.9492 31.9237C27.0689 31.0026 22.6026 31.0221 18.0372 31.0421C17.0502 31.0464 16.0586 31.0507 15.0672 31.0456C10.391 31.0213 5.68408 30.7857 1.89204 29.1068C2.50885 32.1706 3.90672 35.0189 6.03405 37.5132C8.59907 40.5207 12.1755 42.9546 16.5383 44.6162C20.9013 46.2778 25.9289 47.1199 31.2672 47.0657C36.0465 47.0171 40.9577 46.2512 45.7174 44.8139L42.1995 41.7031Z" fill="white" stroke="#1C4E80" stroke-width="2"/>
<path d="M14.374 57.146H17.594C17.7713 56.922 17.902 56.6327 17.986 56.278C18.0793 55.9233 18.1307 55.732 18.14 55.704L18.742 55.788L18.364 58H11.602L11.686 57.44C12.2647 57.3747 12.7173 57.244 13.044 57.048L13.044 49.488C12.708 49.3013 12.2273 49.1707 11.602 49.096L11.672 48.536H15.816L15.732 49.096C15.1533 49.1613 14.7007 49.292 14.374 49.488L14.374 57.146ZM20.8477 54.458C20.8477 55.5033 20.9877 56.2593 21.2677 56.726C21.5477 57.1833 22.0004 57.412 22.6257 57.412C23.2604 57.412 23.7177 57.1833 23.9977 56.726C24.2777 56.2593 24.4177 55.508 24.4177 54.472C24.4177 53.4267 24.2777 52.6753 23.9977 52.218C23.7177 51.7513 23.2604 51.518 22.6257 51.518C21.991 51.518 21.5337 51.7467 21.2537 52.204C20.983 52.6613 20.8477 53.4127 20.8477 54.458ZM24.9497 57.188C24.427 57.804 23.6524 58.112 22.6257 58.112C21.599 58.112 20.8197 57.804 20.2877 57.188C19.765 56.5627 19.5037 55.6573 19.5037 54.472C19.5037 53.2773 19.765 52.372 20.2877 51.756C20.8197 51.1307 21.599 50.818 22.6257 50.818C23.6524 50.818 24.427 51.1307 24.9497 51.756C25.4817 52.372 25.7477 53.2773 25.7477 54.472C25.7477 55.6573 25.4817 56.5627 24.9497 57.188ZM27.8382 56.25V51.7H26.6062V51.28C27.5955 50.944 28.2395 50.3327 28.5382 49.446H29.1402V50.916H30.8482V51.7H29.1262V56.362C29.1262 56.7353 29.1682 57.0013 29.2522 57.16C29.3362 57.3187 29.5275 57.398 29.8262 57.398C30.1248 57.398 30.4375 57.3 30.7642 57.104L31.0582 57.552C30.5915 57.9253 30.0502 58.112 29.4342 58.112C28.8182 58.112 28.3982 57.972 28.1742 57.692C27.9502 57.4027 27.8382 56.922 27.8382 56.25ZM32.5761 55.676V52.736C32.5761 52.3627 32.4967 52.1107 32.3381 51.98C32.1887 51.84 31.9181 51.7607 31.5261 51.742L31.5681 51.294C31.9507 51.2287 32.6181 51.056 33.5701 50.776L33.8641 50.93V55.844C33.8641 56.8987 34.2981 57.426 35.1661 57.426C35.4274 57.426 35.7027 57.3327 35.9921 57.146C36.2814 56.95 36.5381 56.6467 36.7621 56.236V52.736C36.7621 52.3627 36.6827 52.1107 36.5241 51.98C36.3747 51.84 36.1041 51.7607 35.7121 51.742L35.7541 51.294C36.1367 51.2287 36.8041 51.056 37.7561 50.776L38.0501 50.93V57.076C38.2834 57.2533 38.6334 57.3887 39.1001 57.482L39.0441 58H37.0421L36.8881 57.048C36.3467 57.7573 35.7167 58.112 34.9981 58.112C33.3834 58.112 32.5761 57.3 32.5761 55.676ZM41.5765 57.272C41.9219 57.3747 42.2952 57.426 42.6965 57.426C43.0979 57.426 43.4245 57.314 43.6765 57.09C43.9285 56.8567 44.0545 56.586 44.0545 56.278C44.0545 55.97 43.9612 55.7227 43.7745 55.536C43.5972 55.34 43.3732 55.2 43.1025 55.116C42.8319 55.0227 42.5332 54.9153 42.2065 54.794C41.8892 54.6727 41.5952 54.5467 41.3245 54.416C41.0539 54.2853 40.8252 54.0753 40.6385 53.786C40.4612 53.4873 40.3725 53.128 40.3725 52.708C40.3725 52.1387 40.5965 51.686 41.0445 51.35C41.5019 51.0047 42.0759 50.832 42.7665 50.832C43.4665 50.832 44.0405 50.9767 44.4885 51.266C44.9365 51.546 45.1605 51.8913 45.1605 52.302C45.1605 52.8247 44.9272 53.086 44.4605 53.086C44.1059 53.086 43.8399 52.9507 43.6625 52.68C43.8212 52.5493 43.9005 52.3767 43.9005 52.162C43.9005 51.938 43.7885 51.7607 43.5645 51.63C43.3499 51.4993 43.0652 51.434 42.7105 51.434C42.3652 51.434 42.0759 51.5273 41.8425 51.714C41.6185 51.8913 41.5065 52.1433 41.5065 52.47C41.5065 52.7967 41.6325 53.0673 41.8845 53.282C42.1459 53.4967 42.4585 53.6647 42.8225 53.786C43.1865 53.898 43.5505 54.024 43.9145 54.164C44.2879 54.2947 44.6005 54.5093 44.8525 54.808C45.1139 55.1067 45.2445 55.4847 45.2445 55.942C45.2445 56.6233 45.0112 57.1507 44.5445 57.524C44.0779 57.8973 43.4199 58.084 42.5705 58.084C42.2252 58.084 41.8239 58.028 41.3665 57.916C40.9185 57.7947 40.5825 57.6593 40.3585 57.51V55.648L41.1705 55.55C41.2359 56.3153 41.3712 56.8893 41.5765 57.272ZM54.415 58.098C52.931 58.098 51.8436 57.7107 51.153 56.936C50.4716 56.1613 50.131 54.948 50.131 53.296C50.131 50.0667 51.559 48.452 54.415 48.452C55.535 48.452 56.3843 48.7273 56.963 49.278C57.2803 49.586 57.439 49.936 57.439 50.328C57.439 50.72 57.3503 51.028 57.173 51.252C57.005 51.476 56.809 51.588 56.585 51.588C56.3703 51.588 56.179 51.5367 56.011 51.434C55.8523 51.322 55.7496 51.1773 55.703 51C55.8896 50.7293 55.983 50.454 55.983 50.174C55.983 49.8847 55.8383 49.656 55.549 49.488C55.269 49.3107 54.8956 49.222 54.429 49.222C53.4303 49.222 52.7116 49.544 52.273 50.188C51.8343 50.8227 51.615 51.8587 51.615 53.296C51.615 54.7333 51.8296 55.7647 52.259 56.39C52.6883 57.0153 53.407 57.328 54.415 57.328C54.7416 57.328 55.087 57.2627 55.451 57.132C56.151 56.8707 56.641 56.3527 56.921 55.578L57.621 55.83C57.4716 56.2313 57.271 56.586 57.019 56.894C56.767 57.1927 56.5196 57.4167 56.277 57.566C56.0343 57.7153 55.7683 57.832 55.479 57.916C55.0683 58.0373 54.7136 58.098 54.415 58.098ZM60.5535 58.112C59.9562 58.112 59.4895 57.9627 59.1535 57.664C58.8269 57.356 58.6635 56.9033 58.6635 56.306C58.6635 55.6993 58.8922 55.2093 59.3495 54.836C59.8162 54.4627 60.4929 54.2433 61.3795 54.178L62.5695 54.094V52.862C62.5695 52.358 62.4669 51.994 62.2615 51.77C62.0655 51.5367 61.7482 51.42 61.3095 51.42C60.5162 51.42 60.1195 51.6487 60.1195 52.106C60.1195 52.358 60.2735 52.5447 60.5815 52.666C60.5815 53.142 60.2922 53.38 59.7135 53.38C59.4522 53.38 59.2422 53.3007 59.0835 53.142C58.9249 52.9833 58.8455 52.7733 58.8455 52.512C58.8455 51.9893 59.0649 51.5787 59.5035 51.28C59.9515 50.972 60.5629 50.818 61.3375 50.818C62.1215 50.818 62.7375 51 63.1855 51.364C63.6335 51.7187 63.8575 52.218 63.8575 52.862V57.076C64.0909 57.2533 64.4409 57.3887 64.9075 57.482L64.8515 58H62.7655L62.6115 57.328C62.0609 57.8507 61.3749 58.112 60.5535 58.112ZM59.9935 56.25C59.9935 57.0713 60.3109 57.482 60.9455 57.482C61.4495 57.482 61.9909 57.1927 62.5695 56.614V54.71L61.4355 54.808C60.9875 54.8453 60.6329 54.9947 60.3715 55.256C60.1195 55.5173 59.9935 55.8487 59.9935 56.25ZM66.5709 52.764C66.5709 52.3907 66.4916 52.1387 66.3329 52.008C66.1836 51.868 65.9129 51.7887 65.5209 51.77L65.5629 51.322C65.7682 51.2847 66.3842 51.1167 67.4109 50.818L67.6769 50.958L67.7889 51.742C67.8636 51.6487 67.9569 51.546 68.0689 51.434C68.1902 51.322 68.3956 51.1913 68.6849 51.042C68.9836 50.8927 69.2822 50.818 69.5809 50.818C70.4862 50.818 71.1302 51.1447 71.5129 51.798C72.1662 51.1447 72.8242 50.818 73.4869 50.818C74.1496 50.818 74.6909 51 75.1109 51.364C75.5402 51.728 75.7549 52.302 75.7549 53.086V57.076C75.9882 57.2533 76.3382 57.3887 76.8049 57.482L76.7489 58H73.4309L73.4729 57.482C73.8462 57.426 74.1776 57.2907 74.4669 57.076V53.044C74.4669 52.0453 74.0889 51.546 73.3329 51.546C72.9969 51.546 72.6796 51.672 72.3809 51.924C72.0916 52.1667 71.9002 52.4327 71.8069 52.722V57.076C72.0402 57.2533 72.3902 57.3887 72.8569 57.482L72.8009 58H69.4829L69.5249 57.482C69.8982 57.426 70.2296 57.2907 70.5189 57.076V53.044C70.5189 52.0453 70.1409 51.546 69.3849 51.546C69.0489 51.546 68.7316 51.672 68.4329 51.924C68.1436 52.1667 67.9522 52.4327 67.8589 52.722V57.076C68.1109 57.2627 68.4609 57.398 68.9089 57.482L68.8529 58H65.5209L65.5769 57.454C65.9782 57.3887 66.3096 57.2627 66.5709 57.076V52.764ZM78.4775 52.764C78.4775 52.3907 78.3981 52.1387 78.2395 52.008C78.0901 51.868 77.8195 51.7887 77.4275 51.77L77.4695 51.322C77.6748 51.2847 78.2908 51.1167 79.3175 50.818L79.5835 50.958L79.7095 51.868C80.1201 51.1773 80.7595 50.832 81.6275 50.832C83.4195 50.832 84.3155 51.994 84.3155 54.318C84.3155 55.55 84.0308 56.4927 83.4615 57.146C82.8921 57.79 82.0708 58.112 80.9975 58.112C80.6055 58.112 80.1948 58.0327 79.7655 57.874V60.268C80.0175 60.4547 80.3675 60.59 80.8155 60.674L80.7595 61.192H77.4275L77.4835 60.646C77.8848 60.5807 78.2161 60.4547 78.4775 60.268V52.764ZM79.7655 54.332V57.174C80.1015 57.37 80.5495 57.468 81.1095 57.468C81.6695 57.468 82.1221 57.1927 82.4675 56.642C82.8128 56.0913 82.9855 55.326 82.9855 54.346C82.9855 53.3567 82.8641 52.6333 82.6215 52.176C82.3788 51.7093 82.0008 51.476 81.4875 51.476C80.3395 51.476 79.7655 52.428 79.7655 54.332Z" fill="white"/>
</svg>
